%TF.GenerationSoftware,KiCad,Pcbnew,(5.1.6)-1*%
%TF.CreationDate,2022-10-27T10:48:03-04:00*%
%TF.ProjectId,plipbox-wiretap,706c6970-626f-4782-9d77-697265746170,rev?*%
%TF.SameCoordinates,Original*%
%TF.FileFunction,Copper,L2,Bot*%
%TF.FilePolarity,Positive*%
%FSLAX46Y46*%
G04 Gerber Fmt 4.6, Leading zero omitted, Abs format (unit mm)*
G04 Created by KiCad (PCBNEW (5.1.6)-1) date 2022-10-27 10:48:03*
%MOMM*%
%LPD*%
G01*
G04 APERTURE LIST*
%TA.AperFunction,ComponentPad*%
%ADD10C,5.400000*%
%TD*%
%TA.AperFunction,ComponentPad*%
%ADD11C,0.800000*%
%TD*%
%TA.AperFunction,ComponentPad*%
%ADD12R,1.500000X1.500000*%
%TD*%
%TA.AperFunction,ComponentPad*%
%ADD13C,1.500000*%
%TD*%
%TA.AperFunction,ComponentPad*%
%ADD14C,4.800000*%
%TD*%
%TA.AperFunction,ComponentPad*%
%ADD15R,1.700000X1.700000*%
%TD*%
%TA.AperFunction,ComponentPad*%
%ADD16O,1.700000X1.700000*%
%TD*%
%TA.AperFunction,ComponentPad*%
%ADD17R,3.500000X3.500000*%
%TD*%
%TA.AperFunction,ComponentPad*%
%ADD18C,1.800000*%
%TD*%
%TA.AperFunction,ComponentPad*%
%ADD19R,1.800000X1.800000*%
%TD*%
%TA.AperFunction,ComponentPad*%
%ADD20C,1.850000*%
%TD*%
%TA.AperFunction,ViaPad*%
%ADD21C,0.800000*%
%TD*%
%TA.AperFunction,Conductor*%
%ADD22C,0.400000*%
%TD*%
%TA.AperFunction,Conductor*%
%ADD23C,0.254000*%
%TD*%
G04 APERTURE END LIST*
D10*
%TO.P,REF\u002A\u002A,1*%
%TO.N,N/C*%
X176022000Y-101092000D03*
D11*
X178047000Y-101092000D03*
X177453891Y-102523891D03*
X176022000Y-103117000D03*
X174590109Y-102523891D03*
X173997000Y-101092000D03*
X174590109Y-99660109D03*
X176022000Y-99067000D03*
X177453891Y-99660109D03*
%TD*%
%TO.P,REF\u002A\u002A,1*%
%TO.N,N/C*%
X177707891Y-55718109D03*
X176276000Y-55125000D03*
X174844109Y-55718109D03*
X174251000Y-57150000D03*
X174844109Y-58581891D03*
X176276000Y-59175000D03*
X177707891Y-58581891D03*
X178301000Y-57150000D03*
D10*
X176276000Y-57150000D03*
%TD*%
D12*
%TO.P,J0,1*%
%TO.N,D3*%
X197281800Y-95681800D03*
D13*
%TO.P,J0,2*%
%TO.N,A0*%
X197281800Y-92911800D03*
%TO.P,J0,3*%
%TO.N,A1*%
X197281800Y-90141800D03*
%TO.P,J0,4*%
%TO.N,A2*%
X197281800Y-87371800D03*
%TO.P,J0,5*%
%TO.N,A3*%
X197281800Y-84601800D03*
%TO.P,J0,6*%
%TO.N,A4*%
X197281800Y-81831800D03*
%TO.P,J0,7*%
%TO.N,A5*%
X197281800Y-79061800D03*
%TO.P,J0,8*%
%TO.N,D6*%
X197281800Y-76291800D03*
%TO.P,J0,9*%
%TO.N,D7*%
X197281800Y-73521800D03*
%TO.P,J0,10*%
%TO.N,D8*%
X197281800Y-70751800D03*
%TO.P,J0,11*%
%TO.N,D4*%
X197281800Y-67981800D03*
%TO.P,J0,12*%
%TO.N,D5*%
X197281800Y-65211800D03*
%TO.P,J0,13*%
%TO.N,D9*%
X197281800Y-62441800D03*
%TO.P,J0,14*%
%TO.N,Net-(J0-Pad14)*%
X199821800Y-94296800D03*
%TO.P,J0,15*%
%TO.N,Net-(J0-Pad15)*%
X199821800Y-91526800D03*
%TO.P,J0,16*%
%TO.N,Net-(J0-Pad16)*%
X199821800Y-88756800D03*
%TO.P,J0,17*%
%TO.N,GND*%
X199821800Y-85986800D03*
%TO.P,J0,18*%
X199821800Y-83216800D03*
%TO.P,J0,19*%
X199821800Y-80446800D03*
%TO.P,J0,20*%
X199821800Y-77676800D03*
%TO.P,J0,21*%
X199821800Y-74906800D03*
%TO.P,J0,22*%
X199821800Y-72136800D03*
%TO.P,J0,23*%
%TO.N,Net-(J0-Pad23)*%
X199821800Y-69366800D03*
%TO.P,J0,24*%
%TO.N,Net-(J0-Pad24)*%
X199821800Y-66596800D03*
%TO.P,J0,25*%
%TO.N,Net-(J0-Pad25)*%
X199821800Y-63826800D03*
D14*
%TO.P,J0,MH1*%
%TO.N,GND*%
X198551800Y-102581800D03*
%TO.P,J0,MH2*%
X198551800Y-55541800D03*
%TD*%
D15*
%TO.P,J1,1*%
%TO.N,VCC*%
X158496000Y-63500000D03*
D16*
%TO.P,J1,2*%
%TO.N,GND*%
X158496000Y-60960000D03*
%TO.P,J1,3*%
%TO.N,+5V*%
X158496000Y-58420000D03*
%TD*%
D17*
%TO.P,J3,1*%
%TO.N,VCC*%
X162560000Y-96215200D03*
%TO.P,J3,2*%
%TO.N,GND*%
%TA.AperFunction,ComponentPad*%
G36*
G01*
X155060000Y-97215200D02*
X155060000Y-95215200D01*
G75*
G02*
X155810000Y-94465200I750000J0D01*
G01*
X157310000Y-94465200D01*
G75*
G02*
X158060000Y-95215200I0J-750000D01*
G01*
X158060000Y-97215200D01*
G75*
G02*
X157310000Y-97965200I-750000J0D01*
G01*
X155810000Y-97965200D01*
G75*
G02*
X155060000Y-97215200I0J750000D01*
G01*
G37*
%TD.AperFunction*%
%TO.P,J3,3*%
%TO.N,N/C*%
%TA.AperFunction,ComponentPad*%
G36*
G01*
X157810000Y-101790200D02*
X157810000Y-100040200D01*
G75*
G02*
X158685000Y-99165200I875000J0D01*
G01*
X160435000Y-99165200D01*
G75*
G02*
X161310000Y-100040200I0J-875000D01*
G01*
X161310000Y-101790200D01*
G75*
G02*
X160435000Y-102665200I-875000J0D01*
G01*
X158685000Y-102665200D01*
G75*
G02*
X157810000Y-101790200I0J875000D01*
G01*
G37*
%TD.AperFunction*%
%TD*%
D18*
%TO.P,TB1,30*%
%TO.N,VCC*%
X152374600Y-71424800D03*
%TO.P,TB1,29*%
%TO.N,GND*%
X154914600Y-71424800D03*
%TO.P,TB1,28*%
%TO.N,Net-(TB1-Pad28)*%
X157454600Y-71424800D03*
%TO.P,TB1,27*%
%TO.N,+5V*%
X159994600Y-71424800D03*
%TO.P,TB1,26*%
%TO.N,Net-(TB1-Pad26)*%
X162534600Y-71424800D03*
%TO.P,TB1,25*%
%TO.N,Net-(TB1-Pad25)*%
X165074600Y-71424800D03*
%TO.P,TB1,24*%
%TO.N,A5*%
X167614600Y-71424800D03*
%TO.P,TB1,23*%
%TO.N,A4*%
X170154600Y-71424800D03*
%TO.P,TB1,22*%
%TO.N,A3*%
X172694600Y-71424800D03*
%TO.P,TB1,21*%
%TO.N,A2*%
X175234600Y-71424800D03*
%TO.P,TB1,20*%
%TO.N,A1*%
X177774600Y-71424800D03*
%TO.P,TB1,19*%
%TO.N,A0*%
X180314600Y-71424800D03*
%TO.P,TB1,18*%
%TO.N,Net-(TB1-Pad18)*%
X182854600Y-71424800D03*
%TO.P,TB1,17*%
%TO.N,Net-(TB1-Pad17)*%
X185394600Y-71424800D03*
%TO.P,TB1,16*%
%TO.N,Net-(TB1-Pad16)*%
X187934600Y-71424800D03*
%TO.P,TB1,15*%
%TO.N,Net-(TB1-Pad15)*%
X187934600Y-86664800D03*
%TO.P,TB1,14*%
%TO.N,Net-(TB1-Pad14)*%
X185394600Y-86664800D03*
%TO.P,TB1,13*%
%TO.N,Net-(TB1-Pad13)*%
X182854600Y-86664800D03*
%TO.P,TB1,12*%
%TO.N,D9*%
X180314600Y-86664800D03*
%TO.P,TB1,11*%
%TO.N,D8*%
X177774600Y-86664800D03*
%TO.P,TB1,10*%
%TO.N,D7*%
X175234600Y-86664800D03*
%TO.P,TB1,9*%
%TO.N,D6*%
X172694600Y-86664800D03*
%TO.P,TB1,8*%
%TO.N,D5*%
X170154600Y-86664800D03*
%TO.P,TB1,7*%
%TO.N,D4*%
X167614600Y-86664800D03*
%TO.P,TB1,6*%
%TO.N,D3*%
X165074600Y-86664800D03*
%TO.P,TB1,5*%
%TO.N,Net-(TB1-Pad5)*%
X162534600Y-86664800D03*
%TO.P,TB1,4*%
%TO.N,GND*%
X159994600Y-86664800D03*
%TO.P,TB1,3*%
%TO.N,Net-(TB1-Pad28)*%
X157454600Y-86664800D03*
%TO.P,TB1,2*%
%TO.N,Net-(TB1-Pad2)*%
X154914600Y-86664800D03*
D19*
%TO.P,TB1,1*%
%TO.N,Net-(TB1-Pad1)*%
X152374600Y-86664800D03*
%TD*%
D20*
%TO.P,J2,MH1*%
%TO.N,GND*%
X151511000Y-57385000D03*
%TO.P,J2,MH2*%
X151511000Y-64535000D03*
%TD*%
D21*
%TO.N,A0*%
X201676000Y-87630000D03*
%TO.N,GND*%
X172974000Y-82550000D03*
X175514000Y-82550000D03*
X178054000Y-82550000D03*
X180594000Y-82550000D03*
X183134000Y-82550000D03*
X181864000Y-76454000D03*
X181864000Y-73914000D03*
X190754000Y-71374000D03*
X190754000Y-67818000D03*
X173228000Y-75692000D03*
X195326000Y-80518000D03*
%TD*%
D22*
%TO.N,A0*%
X197853499Y-69342000D02*
X199377499Y-70866000D01*
X202345989Y-72297989D02*
X202345989Y-86960011D01*
X200914000Y-70866000D02*
X202345989Y-72297989D01*
X180314600Y-71424800D02*
X182397400Y-69342000D01*
X199377499Y-70866000D02*
X200914000Y-70866000D01*
X202345989Y-86960011D02*
X201676000Y-87630000D01*
X182397400Y-69342000D02*
X197853499Y-69342000D01*
%TO.N,A1*%
X199390000Y-68072000D02*
X200660000Y-68072000D01*
X200608800Y-90141800D02*
X197281800Y-90141800D01*
X202946000Y-70358000D02*
X202946000Y-87804600D01*
X202946000Y-87804600D02*
X200608800Y-90141800D01*
X200660000Y-68072000D02*
X202946000Y-70358000D01*
X177774600Y-71424800D02*
X182651400Y-66548000D01*
X197866000Y-66548000D02*
X199390000Y-68072000D01*
X182651400Y-66548000D02*
X197866000Y-66548000D01*
%TO.N,A2*%
X199136000Y-73406000D02*
X200406000Y-73406000D01*
X196780799Y-72136000D02*
X197866000Y-72136000D01*
X197866000Y-72136000D02*
X199136000Y-73406000D01*
X201745978Y-86036022D02*
X200410200Y-87371800D01*
X195947000Y-72969799D02*
X196780799Y-72136000D01*
X200406000Y-73406000D02*
X201745978Y-74745978D01*
X200410200Y-87371800D02*
X197281800Y-87371800D01*
X176779599Y-72969799D02*
X195947000Y-72969799D01*
X175234600Y-71424800D02*
X176779599Y-72969799D01*
X201745978Y-74745978D02*
X201745978Y-86036022D01*
%TO.N,A3*%
X199136000Y-76200000D02*
X200353501Y-76200000D01*
X200386200Y-84601800D02*
X197281800Y-84601800D01*
X201145967Y-76992466D02*
X201145967Y-83842033D01*
X198077799Y-75141799D02*
X199136000Y-76200000D01*
X172694600Y-71424800D02*
X176411599Y-75141799D01*
X176411599Y-75141799D02*
X198077799Y-75141799D01*
X200353501Y-76200000D02*
X201145967Y-76992466D01*
X201145967Y-83842033D02*
X200386200Y-84601800D01*
%TO.N,A4*%
X198431801Y-78272800D02*
X198431801Y-80681799D01*
X197883001Y-77724000D02*
X198431801Y-78272800D01*
X198431801Y-80681799D02*
X197281800Y-81831800D01*
X170154600Y-71424800D02*
X176453800Y-77724000D01*
X176453800Y-77724000D02*
X197883001Y-77724000D01*
%TO.N,A5*%
X175251600Y-79061800D02*
X197281800Y-79061800D01*
X167614600Y-71424800D02*
X175251600Y-79061800D01*
%TO.N,GND*%
X199821800Y-77676800D02*
X199821800Y-80446800D01*
%TO.N,Net-(TB1-Pad28)*%
X157454600Y-71424800D02*
X157454600Y-86664800D01*
%TD*%
D23*
%TO.N,GND*%
G36*
X196986505Y-53171292D02*
G01*
X196710509Y-53520904D01*
X198551800Y-55362195D01*
X200393091Y-53520904D01*
X200117095Y-53171292D01*
X199849253Y-53030000D01*
X209606000Y-53030000D01*
X209606001Y-104958000D01*
X200106446Y-104958000D01*
X200117095Y-104952308D01*
X200393091Y-104602696D01*
X198551800Y-102761405D01*
X196710509Y-104602696D01*
X196986505Y-104952308D01*
X196997295Y-104958000D01*
X149042000Y-104958000D01*
X149042000Y-100040200D01*
X157380934Y-100040200D01*
X157380934Y-101790200D01*
X157405991Y-102044611D01*
X157480200Y-102289244D01*
X157600709Y-102514700D01*
X157762886Y-102712314D01*
X157960500Y-102874491D01*
X158185956Y-102995000D01*
X158430589Y-103069209D01*
X158685000Y-103094266D01*
X160435000Y-103094266D01*
X160689411Y-103069209D01*
X160934044Y-102995000D01*
X161159500Y-102874491D01*
X161357114Y-102712314D01*
X161519291Y-102514700D01*
X161639800Y-102289244D01*
X161714009Y-102044611D01*
X161739066Y-101790200D01*
X161739066Y-100784017D01*
X172895000Y-100784017D01*
X172895000Y-101399983D01*
X173015169Y-102004112D01*
X173250889Y-102573190D01*
X173593101Y-103085346D01*
X174028654Y-103520899D01*
X174540810Y-103863111D01*
X175109888Y-104098831D01*
X175714017Y-104219000D01*
X176329983Y-104219000D01*
X176934112Y-104098831D01*
X177503190Y-103863111D01*
X178015346Y-103520899D01*
X178450899Y-103085346D01*
X178777009Y-102597288D01*
X195711164Y-102597288D01*
X195768768Y-103151171D01*
X195933322Y-103683173D01*
X196181292Y-104147095D01*
X196530904Y-104423091D01*
X198372195Y-102581800D01*
X198731405Y-102581800D01*
X200572696Y-104423091D01*
X200922308Y-104147095D01*
X201182133Y-103654555D01*
X201340876Y-103120790D01*
X201392436Y-102566312D01*
X201334832Y-102012429D01*
X201170278Y-101480427D01*
X200922308Y-101016505D01*
X200572696Y-100740509D01*
X198731405Y-102581800D01*
X198372195Y-102581800D01*
X196530904Y-100740509D01*
X196181292Y-101016505D01*
X195921467Y-101509045D01*
X195762724Y-102042810D01*
X195711164Y-102597288D01*
X178777009Y-102597288D01*
X178793111Y-102573190D01*
X179028831Y-102004112D01*
X179149000Y-101399983D01*
X179149000Y-100784017D01*
X179104620Y-100560904D01*
X196710509Y-100560904D01*
X198551800Y-102402195D01*
X200393091Y-100560904D01*
X200117095Y-100211292D01*
X199624555Y-99951467D01*
X199090790Y-99792724D01*
X198536312Y-99741164D01*
X197982429Y-99798768D01*
X197450427Y-99963322D01*
X196986505Y-100211292D01*
X196710509Y-100560904D01*
X179104620Y-100560904D01*
X179028831Y-100179888D01*
X178793111Y-99610810D01*
X178450899Y-99098654D01*
X178015346Y-98663101D01*
X177503190Y-98320889D01*
X176934112Y-98085169D01*
X176329983Y-97965000D01*
X175714017Y-97965000D01*
X175109888Y-98085169D01*
X174540810Y-98320889D01*
X174028654Y-98663101D01*
X173593101Y-99098654D01*
X173250889Y-99610810D01*
X173015169Y-100179888D01*
X172895000Y-100784017D01*
X161739066Y-100784017D01*
X161739066Y-100040200D01*
X161714009Y-99785789D01*
X161639800Y-99541156D01*
X161519291Y-99315700D01*
X161357114Y-99118086D01*
X161159500Y-98955909D01*
X160934044Y-98835400D01*
X160689411Y-98761191D01*
X160435000Y-98736134D01*
X158685000Y-98736134D01*
X158430589Y-98761191D01*
X158185956Y-98835400D01*
X157960500Y-98955909D01*
X157762886Y-99118086D01*
X157600709Y-99315700D01*
X157480200Y-99541156D01*
X157405991Y-99785789D01*
X157380934Y-100040200D01*
X149042000Y-100040200D01*
X149042000Y-97965200D01*
X154630934Y-97965200D01*
X154639178Y-98048907D01*
X154663595Y-98129396D01*
X154703245Y-98203576D01*
X154756605Y-98268595D01*
X154821624Y-98321955D01*
X154895804Y-98361605D01*
X154976293Y-98386022D01*
X155060000Y-98394266D01*
X156326250Y-98392200D01*
X156433000Y-98285450D01*
X156433000Y-96342200D01*
X156687000Y-96342200D01*
X156687000Y-98285450D01*
X156793750Y-98392200D01*
X158060000Y-98394266D01*
X158143707Y-98386022D01*
X158224196Y-98361605D01*
X158298376Y-98321955D01*
X158363395Y-98268595D01*
X158416755Y-98203576D01*
X158456405Y-98129396D01*
X158480822Y-98048907D01*
X158489066Y-97965200D01*
X158487000Y-96448950D01*
X158380250Y-96342200D01*
X156687000Y-96342200D01*
X156433000Y-96342200D01*
X154739750Y-96342200D01*
X154633000Y-96448950D01*
X154630934Y-97965200D01*
X149042000Y-97965200D01*
X149042000Y-94465200D01*
X154630934Y-94465200D01*
X154633000Y-95981450D01*
X154739750Y-96088200D01*
X156433000Y-96088200D01*
X156433000Y-94144950D01*
X156687000Y-94144950D01*
X156687000Y-96088200D01*
X158380250Y-96088200D01*
X158487000Y-95981450D01*
X158489066Y-94465200D01*
X160380934Y-94465200D01*
X160380934Y-97965200D01*
X160389178Y-98048907D01*
X160413595Y-98129396D01*
X160453245Y-98203576D01*
X160506605Y-98268595D01*
X160571624Y-98321955D01*
X160645804Y-98361605D01*
X160726293Y-98386022D01*
X160810000Y-98394266D01*
X164310000Y-98394266D01*
X164393707Y-98386022D01*
X164474196Y-98361605D01*
X164548376Y-98321955D01*
X164613395Y-98268595D01*
X164666755Y-98203576D01*
X164706405Y-98129396D01*
X164730822Y-98048907D01*
X164739066Y-97965200D01*
X164739066Y-94931800D01*
X196102734Y-94931800D01*
X196102734Y-96431800D01*
X196110978Y-96515507D01*
X196135395Y-96595996D01*
X196175045Y-96670176D01*
X196228405Y-96735195D01*
X196293424Y-96788555D01*
X196367604Y-96828205D01*
X196448093Y-96852622D01*
X196531800Y-96860866D01*
X198031800Y-96860866D01*
X198115507Y-96852622D01*
X198195996Y-96828205D01*
X198270176Y-96788555D01*
X198335195Y-96735195D01*
X198388555Y-96670176D01*
X198428205Y-96595996D01*
X198452622Y-96515507D01*
X198460866Y-96431800D01*
X198460866Y-94931800D01*
X198452622Y-94848093D01*
X198428205Y-94767604D01*
X198388555Y-94693424D01*
X198335195Y-94628405D01*
X198270176Y-94575045D01*
X198195996Y-94535395D01*
X198115507Y-94510978D01*
X198031800Y-94502734D01*
X196531800Y-94502734D01*
X196448093Y-94510978D01*
X196367604Y-94535395D01*
X196293424Y-94575045D01*
X196228405Y-94628405D01*
X196175045Y-94693424D01*
X196135395Y-94767604D01*
X196110978Y-94848093D01*
X196102734Y-94931800D01*
X164739066Y-94931800D01*
X164739066Y-94465200D01*
X164730822Y-94381493D01*
X164706405Y-94301004D01*
X164666755Y-94226824D01*
X164629047Y-94180876D01*
X198644800Y-94180876D01*
X198644800Y-94412724D01*
X198690031Y-94640118D01*
X198778756Y-94854319D01*
X198907564Y-95047094D01*
X199071506Y-95211036D01*
X199264281Y-95339844D01*
X199478482Y-95428569D01*
X199705876Y-95473800D01*
X199937724Y-95473800D01*
X200165118Y-95428569D01*
X200379319Y-95339844D01*
X200572094Y-95211036D01*
X200736036Y-95047094D01*
X200864844Y-94854319D01*
X200953569Y-94640118D01*
X200998800Y-94412724D01*
X200998800Y-94180876D01*
X200953569Y-93953482D01*
X200864844Y-93739281D01*
X200736036Y-93546506D01*
X200572094Y-93382564D01*
X200379319Y-93253756D01*
X200165118Y-93165031D01*
X199937724Y-93119800D01*
X199705876Y-93119800D01*
X199478482Y-93165031D01*
X199264281Y-93253756D01*
X199071506Y-93382564D01*
X198907564Y-93546506D01*
X198778756Y-93739281D01*
X198690031Y-93953482D01*
X198644800Y-94180876D01*
X164629047Y-94180876D01*
X164613395Y-94161805D01*
X164548376Y-94108445D01*
X164474196Y-94068795D01*
X164393707Y-94044378D01*
X164310000Y-94036134D01*
X160810000Y-94036134D01*
X160726293Y-94044378D01*
X160645804Y-94068795D01*
X160571624Y-94108445D01*
X160506605Y-94161805D01*
X160453245Y-94226824D01*
X160413595Y-94301004D01*
X160389178Y-94381493D01*
X160380934Y-94465200D01*
X158489066Y-94465200D01*
X158480822Y-94381493D01*
X158456405Y-94301004D01*
X158416755Y-94226824D01*
X158363395Y-94161805D01*
X158298376Y-94108445D01*
X158224196Y-94068795D01*
X158143707Y-94044378D01*
X158060000Y-94036134D01*
X156793750Y-94038200D01*
X156687000Y-94144950D01*
X156433000Y-94144950D01*
X156326250Y-94038200D01*
X155060000Y-94036134D01*
X154976293Y-94044378D01*
X154895804Y-94068795D01*
X154821624Y-94108445D01*
X154756605Y-94161805D01*
X154703245Y-94226824D01*
X154663595Y-94301004D01*
X154639178Y-94381493D01*
X154630934Y-94465200D01*
X149042000Y-94465200D01*
X149042000Y-92795876D01*
X196104800Y-92795876D01*
X196104800Y-93027724D01*
X196150031Y-93255118D01*
X196238756Y-93469319D01*
X196367564Y-93662094D01*
X196531506Y-93826036D01*
X196724281Y-93954844D01*
X196938482Y-94043569D01*
X197165876Y-94088800D01*
X197397724Y-94088800D01*
X197625118Y-94043569D01*
X197839319Y-93954844D01*
X198032094Y-93826036D01*
X198196036Y-93662094D01*
X198324844Y-93469319D01*
X198413569Y-93255118D01*
X198458800Y-93027724D01*
X198458800Y-92795876D01*
X198413569Y-92568482D01*
X198324844Y-92354281D01*
X198196036Y-92161506D01*
X198032094Y-91997564D01*
X197839319Y-91868756D01*
X197625118Y-91780031D01*
X197397724Y-91734800D01*
X197165876Y-91734800D01*
X196938482Y-91780031D01*
X196724281Y-91868756D01*
X196531506Y-91997564D01*
X196367564Y-92161506D01*
X196238756Y-92354281D01*
X196150031Y-92568482D01*
X196104800Y-92795876D01*
X149042000Y-92795876D01*
X149042000Y-85764800D01*
X151045534Y-85764800D01*
X151045534Y-87564800D01*
X151053778Y-87648507D01*
X151078195Y-87728996D01*
X151117845Y-87803176D01*
X151171205Y-87868195D01*
X151236224Y-87921555D01*
X151310404Y-87961205D01*
X151390893Y-87985622D01*
X151474600Y-87993866D01*
X153274600Y-87993866D01*
X153358307Y-87985622D01*
X153438796Y-87961205D01*
X153512976Y-87921555D01*
X153577995Y-87868195D01*
X153631355Y-87803176D01*
X153671005Y-87728996D01*
X153695422Y-87648507D01*
X153703666Y-87564800D01*
X153703666Y-87208964D01*
X153738628Y-87293370D01*
X153883852Y-87510713D01*
X154068687Y-87695548D01*
X154286030Y-87840772D01*
X154527528Y-87940804D01*
X154783902Y-87991800D01*
X155045298Y-87991800D01*
X155301672Y-87940804D01*
X155543170Y-87840772D01*
X155760513Y-87695548D01*
X155945348Y-87510713D01*
X156090572Y-87293370D01*
X156184600Y-87066367D01*
X156278628Y-87293370D01*
X156423852Y-87510713D01*
X156608687Y-87695548D01*
X156826030Y-87840772D01*
X157067528Y-87940804D01*
X157323902Y-87991800D01*
X157585298Y-87991800D01*
X157841672Y-87940804D01*
X158083170Y-87840772D01*
X158300513Y-87695548D01*
X158378732Y-87617329D01*
X159221676Y-87617329D01*
X159317143Y-87813305D01*
X159554222Y-87923402D01*
X159808226Y-87985132D01*
X160069391Y-87996122D01*
X160327681Y-87955950D01*
X160573172Y-87866160D01*
X160672057Y-87813305D01*
X160767524Y-87617329D01*
X159994600Y-86844405D01*
X159221676Y-87617329D01*
X158378732Y-87617329D01*
X158485348Y-87510713D01*
X158630572Y-87293370D01*
X158726671Y-87061368D01*
X158793240Y-87243372D01*
X158846095Y-87342257D01*
X159042071Y-87437724D01*
X159814995Y-86664800D01*
X160174205Y-86664800D01*
X160947129Y-87437724D01*
X161143105Y-87342257D01*
X161253202Y-87105178D01*
X161263361Y-87063376D01*
X161358628Y-87293370D01*
X161503852Y-87510713D01*
X161688687Y-87695548D01*
X161906030Y-87840772D01*
X162147528Y-87940804D01*
X162403902Y-87991800D01*
X162665298Y-87991800D01*
X162921672Y-87940804D01*
X163163170Y-87840772D01*
X163380513Y-87695548D01*
X163565348Y-87510713D01*
X163710572Y-87293370D01*
X163804600Y-87066367D01*
X163898628Y-87293370D01*
X164043852Y-87510713D01*
X164228687Y-87695548D01*
X164446030Y-87840772D01*
X164687528Y-87940804D01*
X164943902Y-87991800D01*
X165205298Y-87991800D01*
X165461672Y-87940804D01*
X165703170Y-87840772D01*
X165920513Y-87695548D01*
X166105348Y-87510713D01*
X166250572Y-87293370D01*
X166344600Y-87066367D01*
X166438628Y-87293370D01*
X166583852Y-87510713D01*
X166768687Y-87695548D01*
X166986030Y-87840772D01*
X167227528Y-87940804D01*
X167483902Y-87991800D01*
X167745298Y-87991800D01*
X168001672Y-87940804D01*
X168243170Y-87840772D01*
X168460513Y-87695548D01*
X168645348Y-87510713D01*
X168790572Y-87293370D01*
X168884600Y-87066367D01*
X168978628Y-87293370D01*
X169123852Y-87510713D01*
X169308687Y-87695548D01*
X169526030Y-87840772D01*
X169767528Y-87940804D01*
X170023902Y-87991800D01*
X170285298Y-87991800D01*
X170541672Y-87940804D01*
X170783170Y-87840772D01*
X171000513Y-87695548D01*
X171185348Y-87510713D01*
X171330572Y-87293370D01*
X171424600Y-87066367D01*
X171518628Y-87293370D01*
X171663852Y-87510713D01*
X171848687Y-87695548D01*
X172066030Y-87840772D01*
X172307528Y-87940804D01*
X172563902Y-87991800D01*
X172825298Y-87991800D01*
X173081672Y-87940804D01*
X173323170Y-87840772D01*
X173540513Y-87695548D01*
X173725348Y-87510713D01*
X173870572Y-87293370D01*
X173964600Y-87066367D01*
X174058628Y-87293370D01*
X174203852Y-87510713D01*
X174388687Y-87695548D01*
X174606030Y-87840772D01*
X174847528Y-87940804D01*
X175103902Y-87991800D01*
X175365298Y-87991800D01*
X175621672Y-87940804D01*
X175863170Y-87840772D01*
X176080513Y-87695548D01*
X176265348Y-87510713D01*
X176410572Y-87293370D01*
X176504600Y-87066367D01*
X176598628Y-87293370D01*
X176743852Y-87510713D01*
X176928687Y-87695548D01*
X177146030Y-87840772D01*
X177387528Y-87940804D01*
X177643902Y-87991800D01*
X177905298Y-87991800D01*
X178161672Y-87940804D01*
X178403170Y-87840772D01*
X178620513Y-87695548D01*
X178805348Y-87510713D01*
X178950572Y-87293370D01*
X179044600Y-87066367D01*
X179138628Y-87293370D01*
X179283852Y-87510713D01*
X179468687Y-87695548D01*
X179686030Y-87840772D01*
X179927528Y-87940804D01*
X180183902Y-87991800D01*
X180445298Y-87991800D01*
X180701672Y-87940804D01*
X180943170Y-87840772D01*
X181160513Y-87695548D01*
X181345348Y-87510713D01*
X181490572Y-87293370D01*
X181584600Y-87066367D01*
X181678628Y-87293370D01*
X181823852Y-87510713D01*
X182008687Y-87695548D01*
X182226030Y-87840772D01*
X182467528Y-87940804D01*
X182723902Y-87991800D01*
X182985298Y-87991800D01*
X183241672Y-87940804D01*
X183483170Y-87840772D01*
X183700513Y-87695548D01*
X183885348Y-87510713D01*
X184030572Y-87293370D01*
X184124600Y-87066367D01*
X184218628Y-87293370D01*
X184363852Y-87510713D01*
X184548687Y-87695548D01*
X184766030Y-87840772D01*
X185007528Y-87940804D01*
X185263902Y-87991800D01*
X185525298Y-87991800D01*
X185781672Y-87940804D01*
X186023170Y-87840772D01*
X186240513Y-87695548D01*
X186425348Y-87510713D01*
X186570572Y-87293370D01*
X186664600Y-87066367D01*
X186758628Y-87293370D01*
X186903852Y-87510713D01*
X187088687Y-87695548D01*
X187306030Y-87840772D01*
X187547528Y-87940804D01*
X187803902Y-87991800D01*
X188065298Y-87991800D01*
X188321672Y-87940804D01*
X188563170Y-87840772D01*
X188780513Y-87695548D01*
X188965348Y-87510713D01*
X189110572Y-87293370D01*
X189210604Y-87051872D01*
X189261600Y-86795498D01*
X189261600Y-86534102D01*
X189210604Y-86277728D01*
X189110572Y-86036230D01*
X188965348Y-85818887D01*
X188780513Y-85634052D01*
X188563170Y-85488828D01*
X188321672Y-85388796D01*
X188065298Y-85337800D01*
X187803902Y-85337800D01*
X187547528Y-85388796D01*
X187306030Y-85488828D01*
X187088687Y-85634052D01*
X186903852Y-85818887D01*
X186758628Y-86036230D01*
X186664600Y-86263233D01*
X186570572Y-86036230D01*
X186425348Y-85818887D01*
X186240513Y-85634052D01*
X186023170Y-85488828D01*
X185781672Y-85388796D01*
X185525298Y-85337800D01*
X185263902Y-85337800D01*
X185007528Y-85388796D01*
X184766030Y-85488828D01*
X184548687Y-85634052D01*
X184363852Y-85818887D01*
X184218628Y-86036230D01*
X184124600Y-86263233D01*
X184030572Y-86036230D01*
X183885348Y-85818887D01*
X183700513Y-85634052D01*
X183483170Y-85488828D01*
X183241672Y-85388796D01*
X182985298Y-85337800D01*
X182723902Y-85337800D01*
X182467528Y-85388796D01*
X182226030Y-85488828D01*
X182008687Y-85634052D01*
X181823852Y-85818887D01*
X181678628Y-86036230D01*
X181584600Y-86263233D01*
X181490572Y-86036230D01*
X181345348Y-85818887D01*
X181160513Y-85634052D01*
X180943170Y-85488828D01*
X180701672Y-85388796D01*
X180445298Y-85337800D01*
X180183902Y-85337800D01*
X179927528Y-85388796D01*
X179686030Y-85488828D01*
X179468687Y-85634052D01*
X179283852Y-85818887D01*
X179138628Y-86036230D01*
X179044600Y-86263233D01*
X178950572Y-86036230D01*
X178805348Y-85818887D01*
X178620513Y-85634052D01*
X178403170Y-85488828D01*
X178161672Y-85388796D01*
X177905298Y-85337800D01*
X177643902Y-85337800D01*
X177387528Y-85388796D01*
X177146030Y-85488828D01*
X176928687Y-85634052D01*
X176743852Y-85818887D01*
X176598628Y-86036230D01*
X176504600Y-86263233D01*
X176410572Y-86036230D01*
X176265348Y-85818887D01*
X176080513Y-85634052D01*
X175863170Y-85488828D01*
X175621672Y-85388796D01*
X175365298Y-85337800D01*
X175103902Y-85337800D01*
X174847528Y-85388796D01*
X174606030Y-85488828D01*
X174388687Y-85634052D01*
X174203852Y-85818887D01*
X174058628Y-86036230D01*
X173964600Y-86263233D01*
X173870572Y-86036230D01*
X173725348Y-85818887D01*
X173540513Y-85634052D01*
X173323170Y-85488828D01*
X173081672Y-85388796D01*
X172825298Y-85337800D01*
X172563902Y-85337800D01*
X172307528Y-85388796D01*
X172066030Y-85488828D01*
X171848687Y-85634052D01*
X171663852Y-85818887D01*
X171518628Y-86036230D01*
X171424600Y-86263233D01*
X171330572Y-86036230D01*
X171185348Y-85818887D01*
X171000513Y-85634052D01*
X170783170Y-85488828D01*
X170541672Y-85388796D01*
X170285298Y-85337800D01*
X170023902Y-85337800D01*
X169767528Y-85388796D01*
X169526030Y-85488828D01*
X169308687Y-85634052D01*
X169123852Y-85818887D01*
X168978628Y-86036230D01*
X168884600Y-86263233D01*
X168790572Y-86036230D01*
X168645348Y-85818887D01*
X168460513Y-85634052D01*
X168243170Y-85488828D01*
X168001672Y-85388796D01*
X167745298Y-85337800D01*
X167483902Y-85337800D01*
X167227528Y-85388796D01*
X166986030Y-85488828D01*
X166768687Y-85634052D01*
X166583852Y-85818887D01*
X166438628Y-86036230D01*
X166344600Y-86263233D01*
X166250572Y-86036230D01*
X166105348Y-85818887D01*
X165920513Y-85634052D01*
X165703170Y-85488828D01*
X165461672Y-85388796D01*
X165205298Y-85337800D01*
X164943902Y-85337800D01*
X164687528Y-85388796D01*
X164446030Y-85488828D01*
X164228687Y-85634052D01*
X164043852Y-85818887D01*
X163898628Y-86036230D01*
X163804600Y-86263233D01*
X163710572Y-86036230D01*
X163565348Y-85818887D01*
X163380513Y-85634052D01*
X163163170Y-85488828D01*
X162921672Y-85388796D01*
X162665298Y-85337800D01*
X162403902Y-85337800D01*
X162147528Y-85388796D01*
X161906030Y-85488828D01*
X161688687Y-85634052D01*
X161503852Y-85818887D01*
X161358628Y-86036230D01*
X161262529Y-86268232D01*
X161195960Y-86086228D01*
X161143105Y-85987343D01*
X160947129Y-85891876D01*
X160174205Y-86664800D01*
X159814995Y-86664800D01*
X159042071Y-85891876D01*
X158846095Y-85987343D01*
X158735998Y-86224422D01*
X158725839Y-86266224D01*
X158630572Y-86036230D01*
X158485348Y-85818887D01*
X158378732Y-85712271D01*
X159221676Y-85712271D01*
X159994600Y-86485195D01*
X160767524Y-85712271D01*
X160672057Y-85516295D01*
X160434978Y-85406198D01*
X160180974Y-85344468D01*
X159919809Y-85333478D01*
X159661519Y-85373650D01*
X159416028Y-85463440D01*
X159317143Y-85516295D01*
X159221676Y-85712271D01*
X158378732Y-85712271D01*
X158300513Y-85634052D01*
X158083170Y-85488828D01*
X158081600Y-85488178D01*
X158081600Y-72601422D01*
X158083170Y-72600772D01*
X158300513Y-72455548D01*
X158485348Y-72270713D01*
X158630572Y-72053370D01*
X158724600Y-71826367D01*
X158818628Y-72053370D01*
X158963852Y-72270713D01*
X159148687Y-72455548D01*
X159366030Y-72600772D01*
X159607528Y-72700804D01*
X159863902Y-72751800D01*
X160125298Y-72751800D01*
X160381672Y-72700804D01*
X160623170Y-72600772D01*
X160840513Y-72455548D01*
X161025348Y-72270713D01*
X161170572Y-72053370D01*
X161264600Y-71826367D01*
X161358628Y-72053370D01*
X161503852Y-72270713D01*
X161688687Y-72455548D01*
X161906030Y-72600772D01*
X162147528Y-72700804D01*
X162403902Y-72751800D01*
X162665298Y-72751800D01*
X162921672Y-72700804D01*
X163163170Y-72600772D01*
X163380513Y-72455548D01*
X163565348Y-72270713D01*
X163710572Y-72053370D01*
X163804600Y-71826367D01*
X163898628Y-72053370D01*
X164043852Y-72270713D01*
X164228687Y-72455548D01*
X164446030Y-72600772D01*
X164687528Y-72700804D01*
X164943902Y-72751800D01*
X165205298Y-72751800D01*
X165461672Y-72700804D01*
X165703170Y-72600772D01*
X165920513Y-72455548D01*
X166105348Y-72270713D01*
X166250572Y-72053370D01*
X166344600Y-71826367D01*
X166438628Y-72053370D01*
X166583852Y-72270713D01*
X166768687Y-72455548D01*
X166986030Y-72600772D01*
X167227528Y-72700804D01*
X167483902Y-72751800D01*
X167745298Y-72751800D01*
X168001672Y-72700804D01*
X168003242Y-72700154D01*
X174786466Y-79483378D01*
X174806099Y-79507301D01*
X174901572Y-79585653D01*
X175010497Y-79643875D01*
X175128687Y-79679727D01*
X175251600Y-79691833D01*
X175282394Y-79688800D01*
X196285182Y-79688800D01*
X196367564Y-79812094D01*
X196531506Y-79976036D01*
X196724281Y-80104844D01*
X196938482Y-80193569D01*
X197165876Y-80238800D01*
X197397724Y-80238800D01*
X197625118Y-80193569D01*
X197804802Y-80119142D01*
X197804802Y-80422086D01*
X197543160Y-80683729D01*
X197397724Y-80654800D01*
X197165876Y-80654800D01*
X196938482Y-80700031D01*
X196724281Y-80788756D01*
X196531506Y-80917564D01*
X196367564Y-81081506D01*
X196238756Y-81274281D01*
X196150031Y-81488482D01*
X196104800Y-81715876D01*
X196104800Y-81947724D01*
X196150031Y-82175118D01*
X196238756Y-82389319D01*
X196367564Y-82582094D01*
X196531506Y-82746036D01*
X196724281Y-82874844D01*
X196938482Y-82963569D01*
X197165876Y-83008800D01*
X197397724Y-83008800D01*
X197625118Y-82963569D01*
X197839319Y-82874844D01*
X198032094Y-82746036D01*
X198196036Y-82582094D01*
X198324844Y-82389319D01*
X198413569Y-82175118D01*
X198458800Y-81947724D01*
X198458800Y-81715876D01*
X198429871Y-81570440D01*
X198853379Y-81146933D01*
X198877302Y-81127300D01*
X198912079Y-81084923D01*
X198976508Y-81112487D01*
X199642195Y-80446800D01*
X199628053Y-80432658D01*
X199807658Y-80253053D01*
X199821800Y-80267195D01*
X199835943Y-80253053D01*
X200015548Y-80432658D01*
X200001405Y-80446800D01*
X200015548Y-80460943D01*
X199835943Y-80640548D01*
X199821800Y-80626405D01*
X199156113Y-81292092D01*
X199233395Y-81472736D01*
X199444851Y-81567815D01*
X199670792Y-81619814D01*
X199902538Y-81626736D01*
X200131180Y-81588312D01*
X200347933Y-81506021D01*
X200410205Y-81472736D01*
X200487486Y-81292093D01*
X200518968Y-81323575D01*
X200518968Y-82340025D01*
X200487486Y-82371507D01*
X200410205Y-82190864D01*
X200198749Y-82095785D01*
X199972808Y-82043786D01*
X199741062Y-82036864D01*
X199512420Y-82075288D01*
X199295667Y-82157579D01*
X199233395Y-82190864D01*
X199156113Y-82371508D01*
X199821800Y-83037195D01*
X199835943Y-83023053D01*
X200015548Y-83202658D01*
X200001405Y-83216800D01*
X200015548Y-83230943D01*
X199835943Y-83410548D01*
X199821800Y-83396405D01*
X199807658Y-83410548D01*
X199628053Y-83230943D01*
X199642195Y-83216800D01*
X198976508Y-82551113D01*
X198795864Y-82628395D01*
X198700785Y-82839851D01*
X198648786Y-83065792D01*
X198641864Y-83297538D01*
X198680288Y-83526180D01*
X198762579Y-83742933D01*
X198795864Y-83805205D01*
X198976507Y-83882486D01*
X198896139Y-83962854D01*
X198908085Y-83974800D01*
X198278418Y-83974800D01*
X198196036Y-83851506D01*
X198032094Y-83687564D01*
X197839319Y-83558756D01*
X197625118Y-83470031D01*
X197397724Y-83424800D01*
X197165876Y-83424800D01*
X196938482Y-83470031D01*
X196724281Y-83558756D01*
X196531506Y-83687564D01*
X196367564Y-83851506D01*
X196238756Y-84044281D01*
X196150031Y-84258482D01*
X196104800Y-84485876D01*
X196104800Y-84717724D01*
X196150031Y-84945118D01*
X196238756Y-85159319D01*
X196367564Y-85352094D01*
X196531506Y-85516036D01*
X196724281Y-85644844D01*
X196938482Y-85733569D01*
X197165876Y-85778800D01*
X197397724Y-85778800D01*
X197625118Y-85733569D01*
X197839319Y-85644844D01*
X198032094Y-85516036D01*
X198196036Y-85352094D01*
X198278418Y-85228800D01*
X198908085Y-85228800D01*
X198896139Y-85240746D01*
X198976507Y-85321114D01*
X198795864Y-85398395D01*
X198700785Y-85609851D01*
X198648786Y-85835792D01*
X198641864Y-86067538D01*
X198680288Y-86296180D01*
X198762579Y-86512933D01*
X198795864Y-86575205D01*
X198976507Y-86652486D01*
X198896139Y-86732854D01*
X198908085Y-86744800D01*
X198278418Y-86744800D01*
X198196036Y-86621506D01*
X198032094Y-86457564D01*
X197839319Y-86328756D01*
X197625118Y-86240031D01*
X197397724Y-86194800D01*
X197165876Y-86194800D01*
X196938482Y-86240031D01*
X196724281Y-86328756D01*
X196531506Y-86457564D01*
X196367564Y-86621506D01*
X196238756Y-86814281D01*
X196150031Y-87028482D01*
X196104800Y-87255876D01*
X196104800Y-87487724D01*
X196150031Y-87715118D01*
X196238756Y-87929319D01*
X196367564Y-88122094D01*
X196531506Y-88286036D01*
X196724281Y-88414844D01*
X196938482Y-88503569D01*
X197165876Y-88548800D01*
X197397724Y-88548800D01*
X197625118Y-88503569D01*
X197839319Y-88414844D01*
X198032094Y-88286036D01*
X198196036Y-88122094D01*
X198278418Y-87998800D01*
X198915270Y-87998800D01*
X198907564Y-88006506D01*
X198778756Y-88199281D01*
X198690031Y-88413482D01*
X198644800Y-88640876D01*
X198644800Y-88872724D01*
X198690031Y-89100118D01*
X198778756Y-89314319D01*
X198907564Y-89507094D01*
X198915270Y-89514800D01*
X198278418Y-89514800D01*
X198196036Y-89391506D01*
X198032094Y-89227564D01*
X197839319Y-89098756D01*
X197625118Y-89010031D01*
X197397724Y-88964800D01*
X197165876Y-88964800D01*
X196938482Y-89010031D01*
X196724281Y-89098756D01*
X196531506Y-89227564D01*
X196367564Y-89391506D01*
X196238756Y-89584281D01*
X196150031Y-89798482D01*
X196104800Y-90025876D01*
X196104800Y-90257724D01*
X196150031Y-90485118D01*
X196238756Y-90699319D01*
X196367564Y-90892094D01*
X196531506Y-91056036D01*
X196724281Y-91184844D01*
X196938482Y-91273569D01*
X197165876Y-91318800D01*
X197397724Y-91318800D01*
X197625118Y-91273569D01*
X197839319Y-91184844D01*
X198032094Y-91056036D01*
X198196036Y-90892094D01*
X198278418Y-90768800D01*
X198915270Y-90768800D01*
X198907564Y-90776506D01*
X198778756Y-90969281D01*
X198690031Y-91183482D01*
X198644800Y-91410876D01*
X198644800Y-91642724D01*
X198690031Y-91870118D01*
X198778756Y-92084319D01*
X198907564Y-92277094D01*
X199071506Y-92441036D01*
X199264281Y-92569844D01*
X199478482Y-92658569D01*
X199705876Y-92703800D01*
X199937724Y-92703800D01*
X200165118Y-92658569D01*
X200379319Y-92569844D01*
X200572094Y-92441036D01*
X200736036Y-92277094D01*
X200864844Y-92084319D01*
X200953569Y-91870118D01*
X200998800Y-91642724D01*
X200998800Y-91410876D01*
X200953569Y-91183482D01*
X200864844Y-90969281D01*
X200736036Y-90776506D01*
X200720374Y-90760844D01*
X200731713Y-90759727D01*
X200849903Y-90723875D01*
X200958828Y-90665653D01*
X201054301Y-90587301D01*
X201073938Y-90563373D01*
X203367578Y-88269734D01*
X203391501Y-88250101D01*
X203469853Y-88154628D01*
X203528075Y-88045703D01*
X203563927Y-87927513D01*
X203573000Y-87835394D01*
X203576033Y-87804600D01*
X203573000Y-87773806D01*
X203573000Y-70388793D01*
X203576033Y-70357999D01*
X203563927Y-70235087D01*
X203537751Y-70148796D01*
X203528075Y-70116897D01*
X203469853Y-70007972D01*
X203391501Y-69912499D01*
X203367579Y-69892867D01*
X201125138Y-67650427D01*
X201105501Y-67626499D01*
X201010028Y-67548147D01*
X200901103Y-67489925D01*
X200782913Y-67454073D01*
X200690794Y-67445000D01*
X200660000Y-67441967D01*
X200639105Y-67444025D01*
X200736036Y-67347094D01*
X200864844Y-67154319D01*
X200953569Y-66940118D01*
X200998800Y-66712724D01*
X200998800Y-66480876D01*
X200953569Y-66253482D01*
X200864844Y-66039281D01*
X200736036Y-65846506D01*
X200572094Y-65682564D01*
X200379319Y-65553756D01*
X200165118Y-65465031D01*
X199937724Y-65419800D01*
X199705876Y-65419800D01*
X199478482Y-65465031D01*
X199264281Y-65553756D01*
X199071506Y-65682564D01*
X198907564Y-65846506D01*
X198778756Y-66039281D01*
X198690031Y-66253482D01*
X198651567Y-66446856D01*
X198331138Y-66126427D01*
X198311501Y-66102499D01*
X198216028Y-66024147D01*
X198162562Y-65995568D01*
X198196036Y-65962094D01*
X198324844Y-65769319D01*
X198413569Y-65555118D01*
X198458800Y-65327724D01*
X198458800Y-65095876D01*
X198413569Y-64868482D01*
X198324844Y-64654281D01*
X198196036Y-64461506D01*
X198032094Y-64297564D01*
X197839319Y-64168756D01*
X197625118Y-64080031D01*
X197397724Y-64034800D01*
X197165876Y-64034800D01*
X196938482Y-64080031D01*
X196724281Y-64168756D01*
X196531506Y-64297564D01*
X196367564Y-64461506D01*
X196238756Y-64654281D01*
X196150031Y-64868482D01*
X196104800Y-65095876D01*
X196104800Y-65327724D01*
X196150031Y-65555118D01*
X196238756Y-65769319D01*
X196340106Y-65921000D01*
X182682194Y-65921000D01*
X182651400Y-65917967D01*
X182620606Y-65921000D01*
X182528487Y-65930073D01*
X182410297Y-65965925D01*
X182301372Y-66024147D01*
X182205899Y-66102499D01*
X182186266Y-66126422D01*
X178163242Y-70149446D01*
X178161672Y-70148796D01*
X177905298Y-70097800D01*
X177643902Y-70097800D01*
X177387528Y-70148796D01*
X177146030Y-70248828D01*
X176928687Y-70394052D01*
X176743852Y-70578887D01*
X176598628Y-70796230D01*
X176504600Y-71023233D01*
X176410572Y-70796230D01*
X176265348Y-70578887D01*
X176080513Y-70394052D01*
X175863170Y-70248828D01*
X175621672Y-70148796D01*
X175365298Y-70097800D01*
X175103902Y-70097800D01*
X174847528Y-70148796D01*
X174606030Y-70248828D01*
X174388687Y-70394052D01*
X174203852Y-70578887D01*
X174058628Y-70796230D01*
X173964600Y-71023233D01*
X173870572Y-70796230D01*
X173725348Y-70578887D01*
X173540513Y-70394052D01*
X173323170Y-70248828D01*
X173081672Y-70148796D01*
X172825298Y-70097800D01*
X172563902Y-70097800D01*
X172307528Y-70148796D01*
X172066030Y-70248828D01*
X171848687Y-70394052D01*
X171663852Y-70578887D01*
X171518628Y-70796230D01*
X171424600Y-71023233D01*
X171330572Y-70796230D01*
X171185348Y-70578887D01*
X171000513Y-70394052D01*
X170783170Y-70248828D01*
X170541672Y-70148796D01*
X170285298Y-70097800D01*
X170023902Y-70097800D01*
X169767528Y-70148796D01*
X169526030Y-70248828D01*
X169308687Y-70394052D01*
X169123852Y-70578887D01*
X168978628Y-70796230D01*
X168884600Y-71023233D01*
X168790572Y-70796230D01*
X168645348Y-70578887D01*
X168460513Y-70394052D01*
X168243170Y-70248828D01*
X168001672Y-70148796D01*
X167745298Y-70097800D01*
X167483902Y-70097800D01*
X167227528Y-70148796D01*
X166986030Y-70248828D01*
X166768687Y-70394052D01*
X166583852Y-70578887D01*
X166438628Y-70796230D01*
X166344600Y-71023233D01*
X166250572Y-70796230D01*
X166105348Y-70578887D01*
X165920513Y-70394052D01*
X165703170Y-70248828D01*
X165461672Y-70148796D01*
X165205298Y-70097800D01*
X164943902Y-70097800D01*
X164687528Y-70148796D01*
X164446030Y-70248828D01*
X164228687Y-70394052D01*
X164043852Y-70578887D01*
X163898628Y-70796230D01*
X163804600Y-71023233D01*
X163710572Y-70796230D01*
X163565348Y-70578887D01*
X163380513Y-70394052D01*
X163163170Y-70248828D01*
X162921672Y-70148796D01*
X162665298Y-70097800D01*
X162403902Y-70097800D01*
X162147528Y-70148796D01*
X161906030Y-70248828D01*
X161688687Y-70394052D01*
X161503852Y-70578887D01*
X161358628Y-70796230D01*
X161264600Y-71023233D01*
X161170572Y-70796230D01*
X161025348Y-70578887D01*
X160840513Y-70394052D01*
X160623170Y-70248828D01*
X160381672Y-70148796D01*
X160125298Y-70097800D01*
X159863902Y-70097800D01*
X159607528Y-70148796D01*
X159366030Y-70248828D01*
X159148687Y-70394052D01*
X158963852Y-70578887D01*
X158818628Y-70796230D01*
X158724600Y-71023233D01*
X158630572Y-70796230D01*
X158485348Y-70578887D01*
X158300513Y-70394052D01*
X158083170Y-70248828D01*
X157841672Y-70148796D01*
X157585298Y-70097800D01*
X157323902Y-70097800D01*
X157067528Y-70148796D01*
X156826030Y-70248828D01*
X156608687Y-70394052D01*
X156423852Y-70578887D01*
X156278628Y-70796230D01*
X156182529Y-71028232D01*
X156115960Y-70846228D01*
X156063105Y-70747343D01*
X155867129Y-70651876D01*
X155094205Y-71424800D01*
X155867129Y-72197724D01*
X156063105Y-72102257D01*
X156173202Y-71865178D01*
X156183361Y-71823376D01*
X156278628Y-72053370D01*
X156423852Y-72270713D01*
X156608687Y-72455548D01*
X156826030Y-72600772D01*
X156827600Y-72601422D01*
X156827601Y-85488177D01*
X156826030Y-85488828D01*
X156608687Y-85634052D01*
X156423852Y-85818887D01*
X156278628Y-86036230D01*
X156184600Y-86263233D01*
X156090572Y-86036230D01*
X155945348Y-85818887D01*
X155760513Y-85634052D01*
X155543170Y-85488828D01*
X155301672Y-85388796D01*
X155045298Y-85337800D01*
X154783902Y-85337800D01*
X154527528Y-85388796D01*
X154286030Y-85488828D01*
X154068687Y-85634052D01*
X153883852Y-85818887D01*
X153738628Y-86036230D01*
X153703666Y-86120636D01*
X153703666Y-85764800D01*
X153695422Y-85681093D01*
X153671005Y-85600604D01*
X153631355Y-85526424D01*
X153577995Y-85461405D01*
X153512976Y-85408045D01*
X153438796Y-85368395D01*
X153358307Y-85343978D01*
X153274600Y-85335734D01*
X151474600Y-85335734D01*
X151390893Y-85343978D01*
X151310404Y-85368395D01*
X151236224Y-85408045D01*
X151171205Y-85461405D01*
X151117845Y-85526424D01*
X151078195Y-85600604D01*
X151053778Y-85681093D01*
X151045534Y-85764800D01*
X149042000Y-85764800D01*
X149042000Y-71294102D01*
X151047600Y-71294102D01*
X151047600Y-71555498D01*
X151098596Y-71811872D01*
X151198628Y-72053370D01*
X151343852Y-72270713D01*
X151528687Y-72455548D01*
X151746030Y-72600772D01*
X151987528Y-72700804D01*
X152243902Y-72751800D01*
X152505298Y-72751800D01*
X152761672Y-72700804D01*
X153003170Y-72600772D01*
X153220513Y-72455548D01*
X153298732Y-72377329D01*
X154141676Y-72377329D01*
X154237143Y-72573305D01*
X154474222Y-72683402D01*
X154728226Y-72745132D01*
X154989391Y-72756122D01*
X155247681Y-72715950D01*
X155493172Y-72626160D01*
X155592057Y-72573305D01*
X155687524Y-72377329D01*
X154914600Y-71604405D01*
X154141676Y-72377329D01*
X153298732Y-72377329D01*
X153405348Y-72270713D01*
X153550572Y-72053370D01*
X153646671Y-71821368D01*
X153713240Y-72003372D01*
X153766095Y-72102257D01*
X153962071Y-72197724D01*
X154734995Y-71424800D01*
X153962071Y-70651876D01*
X153766095Y-70747343D01*
X153655998Y-70984422D01*
X153645839Y-71026224D01*
X153550572Y-70796230D01*
X153405348Y-70578887D01*
X153298732Y-70472271D01*
X154141676Y-70472271D01*
X154914600Y-71245195D01*
X155687524Y-70472271D01*
X155592057Y-70276295D01*
X155354978Y-70166198D01*
X155100974Y-70104468D01*
X154839809Y-70093478D01*
X154581519Y-70133650D01*
X154336028Y-70223440D01*
X154237143Y-70276295D01*
X154141676Y-70472271D01*
X153298732Y-70472271D01*
X153220513Y-70394052D01*
X153003170Y-70248828D01*
X152761672Y-70148796D01*
X152505298Y-70097800D01*
X152243902Y-70097800D01*
X151987528Y-70148796D01*
X151746030Y-70248828D01*
X151528687Y-70394052D01*
X151343852Y-70578887D01*
X151198628Y-70796230D01*
X151098596Y-71037728D01*
X151047600Y-71294102D01*
X149042000Y-71294102D01*
X149042000Y-65505386D01*
X150720219Y-65505386D01*
X150818711Y-65703920D01*
X151060058Y-65816518D01*
X151318734Y-65879868D01*
X151584799Y-65891536D01*
X151848028Y-65851073D01*
X152098305Y-65760034D01*
X152203289Y-65703920D01*
X152301781Y-65505386D01*
X151511000Y-64714605D01*
X150720219Y-65505386D01*
X149042000Y-65505386D01*
X149042000Y-64608799D01*
X150154464Y-64608799D01*
X150194927Y-64872028D01*
X150285966Y-65122305D01*
X150342080Y-65227289D01*
X150540614Y-65325781D01*
X151331395Y-64535000D01*
X151690605Y-64535000D01*
X152481386Y-65325781D01*
X152679920Y-65227289D01*
X152792518Y-64985942D01*
X152855868Y-64727266D01*
X152867536Y-64461201D01*
X152827073Y-64197972D01*
X152736034Y-63947695D01*
X152679920Y-63842711D01*
X152481386Y-63744219D01*
X151690605Y-64535000D01*
X151331395Y-64535000D01*
X150540614Y-63744219D01*
X150342080Y-63842711D01*
X150229482Y-64084058D01*
X150166132Y-64342734D01*
X150154464Y-64608799D01*
X149042000Y-64608799D01*
X149042000Y-63564614D01*
X150720219Y-63564614D01*
X151511000Y-64355395D01*
X152301781Y-63564614D01*
X152203289Y-63366080D01*
X151961942Y-63253482D01*
X151703266Y-63190132D01*
X151437201Y-63178464D01*
X151173972Y-63218927D01*
X150923695Y-63309966D01*
X150818711Y-63366080D01*
X150720219Y-63564614D01*
X149042000Y-63564614D01*
X149042000Y-62650000D01*
X157216934Y-62650000D01*
X157216934Y-64350000D01*
X157225178Y-64433707D01*
X157249595Y-64514196D01*
X157289245Y-64588376D01*
X157342605Y-64653395D01*
X157407624Y-64706755D01*
X157481804Y-64746405D01*
X157562293Y-64770822D01*
X157646000Y-64779066D01*
X159346000Y-64779066D01*
X159429707Y-64770822D01*
X159510196Y-64746405D01*
X159584376Y-64706755D01*
X159649395Y-64653395D01*
X159702755Y-64588376D01*
X159742405Y-64514196D01*
X159766822Y-64433707D01*
X159775066Y-64350000D01*
X159775066Y-63710876D01*
X198644800Y-63710876D01*
X198644800Y-63942724D01*
X198690031Y-64170118D01*
X198778756Y-64384319D01*
X198907564Y-64577094D01*
X199071506Y-64741036D01*
X199264281Y-64869844D01*
X199478482Y-64958569D01*
X199705876Y-65003800D01*
X199937724Y-65003800D01*
X200165118Y-64958569D01*
X200379319Y-64869844D01*
X200572094Y-64741036D01*
X200736036Y-64577094D01*
X200864844Y-64384319D01*
X200953569Y-64170118D01*
X200998800Y-63942724D01*
X200998800Y-63710876D01*
X200953569Y-63483482D01*
X200864844Y-63269281D01*
X200736036Y-63076506D01*
X200572094Y-62912564D01*
X200379319Y-62783756D01*
X200165118Y-62695031D01*
X199937724Y-62649800D01*
X199705876Y-62649800D01*
X199478482Y-62695031D01*
X199264281Y-62783756D01*
X199071506Y-62912564D01*
X198907564Y-63076506D01*
X198778756Y-63269281D01*
X198690031Y-63483482D01*
X198644800Y-63710876D01*
X159775066Y-63710876D01*
X159775066Y-62650000D01*
X159766822Y-62566293D01*
X159742405Y-62485804D01*
X159702755Y-62411624D01*
X159649395Y-62346605D01*
X159624137Y-62325876D01*
X196104800Y-62325876D01*
X196104800Y-62557724D01*
X196150031Y-62785118D01*
X196238756Y-62999319D01*
X196367564Y-63192094D01*
X196531506Y-63356036D01*
X196724281Y-63484844D01*
X196938482Y-63573569D01*
X197165876Y-63618800D01*
X197397724Y-63618800D01*
X197625118Y-63573569D01*
X197839319Y-63484844D01*
X198032094Y-63356036D01*
X198196036Y-63192094D01*
X198324844Y-62999319D01*
X198413569Y-62785118D01*
X198458800Y-62557724D01*
X198458800Y-62325876D01*
X198413569Y-62098482D01*
X198324844Y-61884281D01*
X198196036Y-61691506D01*
X198032094Y-61527564D01*
X197839319Y-61398756D01*
X197625118Y-61310031D01*
X197397724Y-61264800D01*
X197165876Y-61264800D01*
X196938482Y-61310031D01*
X196724281Y-61398756D01*
X196531506Y-61527564D01*
X196367564Y-61691506D01*
X196238756Y-61884281D01*
X196150031Y-62098482D01*
X196104800Y-62325876D01*
X159624137Y-62325876D01*
X159584376Y-62293245D01*
X159510196Y-62253595D01*
X159429707Y-62229178D01*
X159346000Y-62220934D01*
X158623002Y-62220934D01*
X158623002Y-62123926D01*
X158820214Y-62195164D01*
X159054953Y-62108180D01*
X159268212Y-61977072D01*
X159451795Y-61806878D01*
X159598647Y-61604139D01*
X159703125Y-61376646D01*
X159731158Y-61284213D01*
X159659338Y-61087000D01*
X158623000Y-61087000D01*
X158623000Y-61107000D01*
X158369000Y-61107000D01*
X158369000Y-61087000D01*
X157332662Y-61087000D01*
X157260842Y-61284213D01*
X157288875Y-61376646D01*
X157393353Y-61604139D01*
X157540205Y-61806878D01*
X157723788Y-61977072D01*
X157937047Y-62108180D01*
X158171786Y-62195164D01*
X158368998Y-62123926D01*
X158368998Y-62220934D01*
X157646000Y-62220934D01*
X157562293Y-62229178D01*
X157481804Y-62253595D01*
X157407624Y-62293245D01*
X157342605Y-62346605D01*
X157289245Y-62411624D01*
X157249595Y-62485804D01*
X157225178Y-62566293D01*
X157216934Y-62650000D01*
X149042000Y-62650000D01*
X149042000Y-58355386D01*
X150720219Y-58355386D01*
X150818711Y-58553920D01*
X151060058Y-58666518D01*
X151318734Y-58729868D01*
X151584799Y-58741536D01*
X151848028Y-58701073D01*
X152098305Y-58610034D01*
X152203289Y-58553920D01*
X152301781Y-58355386D01*
X152240621Y-58294226D01*
X157219000Y-58294226D01*
X157219000Y-58545774D01*
X157268074Y-58792487D01*
X157364337Y-59024886D01*
X157504089Y-59234040D01*
X157681960Y-59411911D01*
X157891114Y-59551663D01*
X158123513Y-59647926D01*
X158368998Y-59696756D01*
X158368998Y-59796074D01*
X158171786Y-59724836D01*
X157937047Y-59811820D01*
X157723788Y-59942928D01*
X157540205Y-60113122D01*
X157393353Y-60315861D01*
X157288875Y-60543354D01*
X157260842Y-60635787D01*
X157332662Y-60833000D01*
X158369000Y-60833000D01*
X158369000Y-60813000D01*
X158623000Y-60813000D01*
X158623000Y-60833000D01*
X159659338Y-60833000D01*
X159731158Y-60635787D01*
X159703125Y-60543354D01*
X159598647Y-60315861D01*
X159451795Y-60113122D01*
X159268212Y-59942928D01*
X159054953Y-59811820D01*
X158820214Y-59724836D01*
X158623002Y-59796074D01*
X158623002Y-59696756D01*
X158868487Y-59647926D01*
X159100886Y-59551663D01*
X159310040Y-59411911D01*
X159487911Y-59234040D01*
X159627663Y-59024886D01*
X159723926Y-58792487D01*
X159773000Y-58545774D01*
X159773000Y-58294226D01*
X159723926Y-58047513D01*
X159627663Y-57815114D01*
X159487911Y-57605960D01*
X159310040Y-57428089D01*
X159100886Y-57288337D01*
X158868487Y-57192074D01*
X158621774Y-57143000D01*
X158370226Y-57143000D01*
X158123513Y-57192074D01*
X157891114Y-57288337D01*
X157681960Y-57428089D01*
X157504089Y-57605960D01*
X157364337Y-57815114D01*
X157268074Y-58047513D01*
X157219000Y-58294226D01*
X152240621Y-58294226D01*
X151511000Y-57564605D01*
X150720219Y-58355386D01*
X149042000Y-58355386D01*
X149042000Y-57458799D01*
X150154464Y-57458799D01*
X150194927Y-57722028D01*
X150285966Y-57972305D01*
X150342080Y-58077289D01*
X150540614Y-58175781D01*
X151331395Y-57385000D01*
X151690605Y-57385000D01*
X152481386Y-58175781D01*
X152679920Y-58077289D01*
X152792518Y-57835942D01*
X152855868Y-57577266D01*
X152867536Y-57311201D01*
X152827073Y-57047972D01*
X152752157Y-56842017D01*
X173149000Y-56842017D01*
X173149000Y-57457983D01*
X173269169Y-58062112D01*
X173504889Y-58631190D01*
X173847101Y-59143346D01*
X174282654Y-59578899D01*
X174794810Y-59921111D01*
X175363888Y-60156831D01*
X175968017Y-60277000D01*
X176583983Y-60277000D01*
X177188112Y-60156831D01*
X177757190Y-59921111D01*
X178269346Y-59578899D01*
X178704899Y-59143346D01*
X179047111Y-58631190D01*
X179282831Y-58062112D01*
X179382171Y-57562696D01*
X196710509Y-57562696D01*
X196986505Y-57912308D01*
X197479045Y-58172133D01*
X198012810Y-58330876D01*
X198567288Y-58382436D01*
X199121171Y-58324832D01*
X199653173Y-58160278D01*
X200117095Y-57912308D01*
X200393091Y-57562696D01*
X198551800Y-55721405D01*
X196710509Y-57562696D01*
X179382171Y-57562696D01*
X179403000Y-57457983D01*
X179403000Y-56842017D01*
X179282831Y-56237888D01*
X179047111Y-55668810D01*
X178972595Y-55557288D01*
X195711164Y-55557288D01*
X195768768Y-56111171D01*
X195933322Y-56643173D01*
X196181292Y-57107095D01*
X196530904Y-57383091D01*
X198372195Y-55541800D01*
X198731405Y-55541800D01*
X200572696Y-57383091D01*
X200922308Y-57107095D01*
X201182133Y-56614555D01*
X201340876Y-56080790D01*
X201392436Y-55526312D01*
X201334832Y-54972429D01*
X201170278Y-54440427D01*
X200922308Y-53976505D01*
X200572696Y-53700509D01*
X198731405Y-55541800D01*
X198372195Y-55541800D01*
X196530904Y-53700509D01*
X196181292Y-53976505D01*
X195921467Y-54469045D01*
X195762724Y-55002810D01*
X195711164Y-55557288D01*
X178972595Y-55557288D01*
X178704899Y-55156654D01*
X178269346Y-54721101D01*
X177757190Y-54378889D01*
X177188112Y-54143169D01*
X176583983Y-54023000D01*
X175968017Y-54023000D01*
X175363888Y-54143169D01*
X174794810Y-54378889D01*
X174282654Y-54721101D01*
X173847101Y-55156654D01*
X173504889Y-55668810D01*
X173269169Y-56237888D01*
X173149000Y-56842017D01*
X152752157Y-56842017D01*
X152736034Y-56797695D01*
X152679920Y-56692711D01*
X152481386Y-56594219D01*
X151690605Y-57385000D01*
X151331395Y-57385000D01*
X150540614Y-56594219D01*
X150342080Y-56692711D01*
X150229482Y-56934058D01*
X150166132Y-57192734D01*
X150154464Y-57458799D01*
X149042000Y-57458799D01*
X149042000Y-56414614D01*
X150720219Y-56414614D01*
X151511000Y-57205395D01*
X152301781Y-56414614D01*
X152203289Y-56216080D01*
X151961942Y-56103482D01*
X151703266Y-56040132D01*
X151437201Y-56028464D01*
X151173972Y-56068927D01*
X150923695Y-56159966D01*
X150818711Y-56216080D01*
X150720219Y-56414614D01*
X149042000Y-56414614D01*
X149042000Y-53030000D01*
X197250845Y-53030000D01*
X196986505Y-53171292D01*
G37*
X196986505Y-53171292D02*
X196710509Y-53520904D01*
X198551800Y-55362195D01*
X200393091Y-53520904D01*
X200117095Y-53171292D01*
X199849253Y-53030000D01*
X209606000Y-53030000D01*
X209606001Y-104958000D01*
X200106446Y-104958000D01*
X200117095Y-104952308D01*
X200393091Y-104602696D01*
X198551800Y-102761405D01*
X196710509Y-104602696D01*
X196986505Y-104952308D01*
X196997295Y-104958000D01*
X149042000Y-104958000D01*
X149042000Y-100040200D01*
X157380934Y-100040200D01*
X157380934Y-101790200D01*
X157405991Y-102044611D01*
X157480200Y-102289244D01*
X157600709Y-102514700D01*
X157762886Y-102712314D01*
X157960500Y-102874491D01*
X158185956Y-102995000D01*
X158430589Y-103069209D01*
X158685000Y-103094266D01*
X160435000Y-103094266D01*
X160689411Y-103069209D01*
X160934044Y-102995000D01*
X161159500Y-102874491D01*
X161357114Y-102712314D01*
X161519291Y-102514700D01*
X161639800Y-102289244D01*
X161714009Y-102044611D01*
X161739066Y-101790200D01*
X161739066Y-100784017D01*
X172895000Y-100784017D01*
X172895000Y-101399983D01*
X173015169Y-102004112D01*
X173250889Y-102573190D01*
X173593101Y-103085346D01*
X174028654Y-103520899D01*
X174540810Y-103863111D01*
X175109888Y-104098831D01*
X175714017Y-104219000D01*
X176329983Y-104219000D01*
X176934112Y-104098831D01*
X177503190Y-103863111D01*
X178015346Y-103520899D01*
X178450899Y-103085346D01*
X178777009Y-102597288D01*
X195711164Y-102597288D01*
X195768768Y-103151171D01*
X195933322Y-103683173D01*
X196181292Y-104147095D01*
X196530904Y-104423091D01*
X198372195Y-102581800D01*
X198731405Y-102581800D01*
X200572696Y-104423091D01*
X200922308Y-104147095D01*
X201182133Y-103654555D01*
X201340876Y-103120790D01*
X201392436Y-102566312D01*
X201334832Y-102012429D01*
X201170278Y-101480427D01*
X200922308Y-101016505D01*
X200572696Y-100740509D01*
X198731405Y-102581800D01*
X198372195Y-102581800D01*
X196530904Y-100740509D01*
X196181292Y-101016505D01*
X195921467Y-101509045D01*
X195762724Y-102042810D01*
X195711164Y-102597288D01*
X178777009Y-102597288D01*
X178793111Y-102573190D01*
X179028831Y-102004112D01*
X179149000Y-101399983D01*
X179149000Y-100784017D01*
X179104620Y-100560904D01*
X196710509Y-100560904D01*
X198551800Y-102402195D01*
X200393091Y-100560904D01*
X200117095Y-100211292D01*
X199624555Y-99951467D01*
X199090790Y-99792724D01*
X198536312Y-99741164D01*
X197982429Y-99798768D01*
X197450427Y-99963322D01*
X196986505Y-100211292D01*
X196710509Y-100560904D01*
X179104620Y-100560904D01*
X179028831Y-100179888D01*
X178793111Y-99610810D01*
X178450899Y-99098654D01*
X178015346Y-98663101D01*
X177503190Y-98320889D01*
X176934112Y-98085169D01*
X176329983Y-97965000D01*
X175714017Y-97965000D01*
X175109888Y-98085169D01*
X174540810Y-98320889D01*
X174028654Y-98663101D01*
X173593101Y-99098654D01*
X173250889Y-99610810D01*
X173015169Y-100179888D01*
X172895000Y-100784017D01*
X161739066Y-100784017D01*
X161739066Y-100040200D01*
X161714009Y-99785789D01*
X161639800Y-99541156D01*
X161519291Y-99315700D01*
X161357114Y-99118086D01*
X161159500Y-98955909D01*
X160934044Y-98835400D01*
X160689411Y-98761191D01*
X160435000Y-98736134D01*
X158685000Y-98736134D01*
X158430589Y-98761191D01*
X158185956Y-98835400D01*
X157960500Y-98955909D01*
X157762886Y-99118086D01*
X157600709Y-99315700D01*
X157480200Y-99541156D01*
X157405991Y-99785789D01*
X157380934Y-100040200D01*
X149042000Y-100040200D01*
X149042000Y-97965200D01*
X154630934Y-97965200D01*
X154639178Y-98048907D01*
X154663595Y-98129396D01*
X154703245Y-98203576D01*
X154756605Y-98268595D01*
X154821624Y-98321955D01*
X154895804Y-98361605D01*
X154976293Y-98386022D01*
X155060000Y-98394266D01*
X156326250Y-98392200D01*
X156433000Y-98285450D01*
X156433000Y-96342200D01*
X156687000Y-96342200D01*
X156687000Y-98285450D01*
X156793750Y-98392200D01*
X158060000Y-98394266D01*
X158143707Y-98386022D01*
X158224196Y-98361605D01*
X158298376Y-98321955D01*
X158363395Y-98268595D01*
X158416755Y-98203576D01*
X158456405Y-98129396D01*
X158480822Y-98048907D01*
X158489066Y-97965200D01*
X158487000Y-96448950D01*
X158380250Y-96342200D01*
X156687000Y-96342200D01*
X156433000Y-96342200D01*
X154739750Y-96342200D01*
X154633000Y-96448950D01*
X154630934Y-97965200D01*
X149042000Y-97965200D01*
X149042000Y-94465200D01*
X154630934Y-94465200D01*
X154633000Y-95981450D01*
X154739750Y-96088200D01*
X156433000Y-96088200D01*
X156433000Y-94144950D01*
X156687000Y-94144950D01*
X156687000Y-96088200D01*
X158380250Y-96088200D01*
X158487000Y-95981450D01*
X158489066Y-94465200D01*
X160380934Y-94465200D01*
X160380934Y-97965200D01*
X160389178Y-98048907D01*
X160413595Y-98129396D01*
X160453245Y-98203576D01*
X160506605Y-98268595D01*
X160571624Y-98321955D01*
X160645804Y-98361605D01*
X160726293Y-98386022D01*
X160810000Y-98394266D01*
X164310000Y-98394266D01*
X164393707Y-98386022D01*
X164474196Y-98361605D01*
X164548376Y-98321955D01*
X164613395Y-98268595D01*
X164666755Y-98203576D01*
X164706405Y-98129396D01*
X164730822Y-98048907D01*
X164739066Y-97965200D01*
X164739066Y-94931800D01*
X196102734Y-94931800D01*
X196102734Y-96431800D01*
X196110978Y-96515507D01*
X196135395Y-96595996D01*
X196175045Y-96670176D01*
X196228405Y-96735195D01*
X196293424Y-96788555D01*
X196367604Y-96828205D01*
X196448093Y-96852622D01*
X196531800Y-96860866D01*
X198031800Y-96860866D01*
X198115507Y-96852622D01*
X198195996Y-96828205D01*
X198270176Y-96788555D01*
X198335195Y-96735195D01*
X198388555Y-96670176D01*
X198428205Y-96595996D01*
X198452622Y-96515507D01*
X198460866Y-96431800D01*
X198460866Y-94931800D01*
X198452622Y-94848093D01*
X198428205Y-94767604D01*
X198388555Y-94693424D01*
X198335195Y-94628405D01*
X198270176Y-94575045D01*
X198195996Y-94535395D01*
X198115507Y-94510978D01*
X198031800Y-94502734D01*
X196531800Y-94502734D01*
X196448093Y-94510978D01*
X196367604Y-94535395D01*
X196293424Y-94575045D01*
X196228405Y-94628405D01*
X196175045Y-94693424D01*
X196135395Y-94767604D01*
X196110978Y-94848093D01*
X196102734Y-94931800D01*
X164739066Y-94931800D01*
X164739066Y-94465200D01*
X164730822Y-94381493D01*
X164706405Y-94301004D01*
X164666755Y-94226824D01*
X164629047Y-94180876D01*
X198644800Y-94180876D01*
X198644800Y-94412724D01*
X198690031Y-94640118D01*
X198778756Y-94854319D01*
X198907564Y-95047094D01*
X199071506Y-95211036D01*
X199264281Y-95339844D01*
X199478482Y-95428569D01*
X199705876Y-95473800D01*
X199937724Y-95473800D01*
X200165118Y-95428569D01*
X200379319Y-95339844D01*
X200572094Y-95211036D01*
X200736036Y-95047094D01*
X200864844Y-94854319D01*
X200953569Y-94640118D01*
X200998800Y-94412724D01*
X200998800Y-94180876D01*
X200953569Y-93953482D01*
X200864844Y-93739281D01*
X200736036Y-93546506D01*
X200572094Y-93382564D01*
X200379319Y-93253756D01*
X200165118Y-93165031D01*
X199937724Y-93119800D01*
X199705876Y-93119800D01*
X199478482Y-93165031D01*
X199264281Y-93253756D01*
X199071506Y-93382564D01*
X198907564Y-93546506D01*
X198778756Y-93739281D01*
X198690031Y-93953482D01*
X198644800Y-94180876D01*
X164629047Y-94180876D01*
X164613395Y-94161805D01*
X164548376Y-94108445D01*
X164474196Y-94068795D01*
X164393707Y-94044378D01*
X164310000Y-94036134D01*
X160810000Y-94036134D01*
X160726293Y-94044378D01*
X160645804Y-94068795D01*
X160571624Y-94108445D01*
X160506605Y-94161805D01*
X160453245Y-94226824D01*
X160413595Y-94301004D01*
X160389178Y-94381493D01*
X160380934Y-94465200D01*
X158489066Y-94465200D01*
X158480822Y-94381493D01*
X158456405Y-94301004D01*
X158416755Y-94226824D01*
X158363395Y-94161805D01*
X158298376Y-94108445D01*
X158224196Y-94068795D01*
X158143707Y-94044378D01*
X158060000Y-94036134D01*
X156793750Y-94038200D01*
X156687000Y-94144950D01*
X156433000Y-94144950D01*
X156326250Y-94038200D01*
X155060000Y-94036134D01*
X154976293Y-94044378D01*
X154895804Y-94068795D01*
X154821624Y-94108445D01*
X154756605Y-94161805D01*
X154703245Y-94226824D01*
X154663595Y-94301004D01*
X154639178Y-94381493D01*
X154630934Y-94465200D01*
X149042000Y-94465200D01*
X149042000Y-92795876D01*
X196104800Y-92795876D01*
X196104800Y-93027724D01*
X196150031Y-93255118D01*
X196238756Y-93469319D01*
X196367564Y-93662094D01*
X196531506Y-93826036D01*
X196724281Y-93954844D01*
X196938482Y-94043569D01*
X197165876Y-94088800D01*
X197397724Y-94088800D01*
X197625118Y-94043569D01*
X197839319Y-93954844D01*
X198032094Y-93826036D01*
X198196036Y-93662094D01*
X198324844Y-93469319D01*
X198413569Y-93255118D01*
X198458800Y-93027724D01*
X198458800Y-92795876D01*
X198413569Y-92568482D01*
X198324844Y-92354281D01*
X198196036Y-92161506D01*
X198032094Y-91997564D01*
X197839319Y-91868756D01*
X197625118Y-91780031D01*
X197397724Y-91734800D01*
X197165876Y-91734800D01*
X196938482Y-91780031D01*
X196724281Y-91868756D01*
X196531506Y-91997564D01*
X196367564Y-92161506D01*
X196238756Y-92354281D01*
X196150031Y-92568482D01*
X196104800Y-92795876D01*
X149042000Y-92795876D01*
X149042000Y-85764800D01*
X151045534Y-85764800D01*
X151045534Y-87564800D01*
X151053778Y-87648507D01*
X151078195Y-87728996D01*
X151117845Y-87803176D01*
X151171205Y-87868195D01*
X151236224Y-87921555D01*
X151310404Y-87961205D01*
X151390893Y-87985622D01*
X151474600Y-87993866D01*
X153274600Y-87993866D01*
X153358307Y-87985622D01*
X153438796Y-87961205D01*
X153512976Y-87921555D01*
X153577995Y-87868195D01*
X153631355Y-87803176D01*
X153671005Y-87728996D01*
X153695422Y-87648507D01*
X153703666Y-87564800D01*
X153703666Y-87208964D01*
X153738628Y-87293370D01*
X153883852Y-87510713D01*
X154068687Y-87695548D01*
X154286030Y-87840772D01*
X154527528Y-87940804D01*
X154783902Y-87991800D01*
X155045298Y-87991800D01*
X155301672Y-87940804D01*
X155543170Y-87840772D01*
X155760513Y-87695548D01*
X155945348Y-87510713D01*
X156090572Y-87293370D01*
X156184600Y-87066367D01*
X156278628Y-87293370D01*
X156423852Y-87510713D01*
X156608687Y-87695548D01*
X156826030Y-87840772D01*
X157067528Y-87940804D01*
X157323902Y-87991800D01*
X157585298Y-87991800D01*
X157841672Y-87940804D01*
X158083170Y-87840772D01*
X158300513Y-87695548D01*
X158378732Y-87617329D01*
X159221676Y-87617329D01*
X159317143Y-87813305D01*
X159554222Y-87923402D01*
X159808226Y-87985132D01*
X160069391Y-87996122D01*
X160327681Y-87955950D01*
X160573172Y-87866160D01*
X160672057Y-87813305D01*
X160767524Y-87617329D01*
X159994600Y-86844405D01*
X159221676Y-87617329D01*
X158378732Y-87617329D01*
X158485348Y-87510713D01*
X158630572Y-87293370D01*
X158726671Y-87061368D01*
X158793240Y-87243372D01*
X158846095Y-87342257D01*
X159042071Y-87437724D01*
X159814995Y-86664800D01*
X160174205Y-86664800D01*
X160947129Y-87437724D01*
X161143105Y-87342257D01*
X161253202Y-87105178D01*
X161263361Y-87063376D01*
X161358628Y-87293370D01*
X161503852Y-87510713D01*
X161688687Y-87695548D01*
X161906030Y-87840772D01*
X162147528Y-87940804D01*
X162403902Y-87991800D01*
X162665298Y-87991800D01*
X162921672Y-87940804D01*
X163163170Y-87840772D01*
X163380513Y-87695548D01*
X163565348Y-87510713D01*
X163710572Y-87293370D01*
X163804600Y-87066367D01*
X163898628Y-87293370D01*
X164043852Y-87510713D01*
X164228687Y-87695548D01*
X164446030Y-87840772D01*
X164687528Y-87940804D01*
X164943902Y-87991800D01*
X165205298Y-87991800D01*
X165461672Y-87940804D01*
X165703170Y-87840772D01*
X165920513Y-87695548D01*
X166105348Y-87510713D01*
X166250572Y-87293370D01*
X166344600Y-87066367D01*
X166438628Y-87293370D01*
X166583852Y-87510713D01*
X166768687Y-87695548D01*
X166986030Y-87840772D01*
X167227528Y-87940804D01*
X167483902Y-87991800D01*
X167745298Y-87991800D01*
X168001672Y-87940804D01*
X168243170Y-87840772D01*
X168460513Y-87695548D01*
X168645348Y-87510713D01*
X168790572Y-87293370D01*
X168884600Y-87066367D01*
X168978628Y-87293370D01*
X169123852Y-87510713D01*
X169308687Y-87695548D01*
X169526030Y-87840772D01*
X169767528Y-87940804D01*
X170023902Y-87991800D01*
X170285298Y-87991800D01*
X170541672Y-87940804D01*
X170783170Y-87840772D01*
X171000513Y-87695548D01*
X171185348Y-87510713D01*
X171330572Y-87293370D01*
X171424600Y-87066367D01*
X171518628Y-87293370D01*
X171663852Y-87510713D01*
X171848687Y-87695548D01*
X172066030Y-87840772D01*
X172307528Y-87940804D01*
X172563902Y-87991800D01*
X172825298Y-87991800D01*
X173081672Y-87940804D01*
X173323170Y-87840772D01*
X173540513Y-87695548D01*
X173725348Y-87510713D01*
X173870572Y-87293370D01*
X173964600Y-87066367D01*
X174058628Y-87293370D01*
X174203852Y-87510713D01*
X174388687Y-87695548D01*
X174606030Y-87840772D01*
X174847528Y-87940804D01*
X175103902Y-87991800D01*
X175365298Y-87991800D01*
X175621672Y-87940804D01*
X175863170Y-87840772D01*
X176080513Y-87695548D01*
X176265348Y-87510713D01*
X176410572Y-87293370D01*
X176504600Y-87066367D01*
X176598628Y-87293370D01*
X176743852Y-87510713D01*
X176928687Y-87695548D01*
X177146030Y-87840772D01*
X177387528Y-87940804D01*
X177643902Y-87991800D01*
X177905298Y-87991800D01*
X178161672Y-87940804D01*
X178403170Y-87840772D01*
X178620513Y-87695548D01*
X178805348Y-87510713D01*
X178950572Y-87293370D01*
X179044600Y-87066367D01*
X179138628Y-87293370D01*
X179283852Y-87510713D01*
X179468687Y-87695548D01*
X179686030Y-87840772D01*
X179927528Y-87940804D01*
X180183902Y-87991800D01*
X180445298Y-87991800D01*
X180701672Y-87940804D01*
X180943170Y-87840772D01*
X181160513Y-87695548D01*
X181345348Y-87510713D01*
X181490572Y-87293370D01*
X181584600Y-87066367D01*
X181678628Y-87293370D01*
X181823852Y-87510713D01*
X182008687Y-87695548D01*
X182226030Y-87840772D01*
X182467528Y-87940804D01*
X182723902Y-87991800D01*
X182985298Y-87991800D01*
X183241672Y-87940804D01*
X183483170Y-87840772D01*
X183700513Y-87695548D01*
X183885348Y-87510713D01*
X184030572Y-87293370D01*
X184124600Y-87066367D01*
X184218628Y-87293370D01*
X184363852Y-87510713D01*
X184548687Y-87695548D01*
X184766030Y-87840772D01*
X185007528Y-87940804D01*
X185263902Y-87991800D01*
X185525298Y-87991800D01*
X185781672Y-87940804D01*
X186023170Y-87840772D01*
X186240513Y-87695548D01*
X186425348Y-87510713D01*
X186570572Y-87293370D01*
X186664600Y-87066367D01*
X186758628Y-87293370D01*
X186903852Y-87510713D01*
X187088687Y-87695548D01*
X187306030Y-87840772D01*
X187547528Y-87940804D01*
X187803902Y-87991800D01*
X188065298Y-87991800D01*
X188321672Y-87940804D01*
X188563170Y-87840772D01*
X188780513Y-87695548D01*
X188965348Y-87510713D01*
X189110572Y-87293370D01*
X189210604Y-87051872D01*
X189261600Y-86795498D01*
X189261600Y-86534102D01*
X189210604Y-86277728D01*
X189110572Y-86036230D01*
X188965348Y-85818887D01*
X188780513Y-85634052D01*
X188563170Y-85488828D01*
X188321672Y-85388796D01*
X188065298Y-85337800D01*
X187803902Y-85337800D01*
X187547528Y-85388796D01*
X187306030Y-85488828D01*
X187088687Y-85634052D01*
X186903852Y-85818887D01*
X186758628Y-86036230D01*
X186664600Y-86263233D01*
X186570572Y-86036230D01*
X186425348Y-85818887D01*
X186240513Y-85634052D01*
X186023170Y-85488828D01*
X185781672Y-85388796D01*
X185525298Y-85337800D01*
X185263902Y-85337800D01*
X185007528Y-85388796D01*
X184766030Y-85488828D01*
X184548687Y-85634052D01*
X184363852Y-85818887D01*
X184218628Y-86036230D01*
X184124600Y-86263233D01*
X184030572Y-86036230D01*
X183885348Y-85818887D01*
X183700513Y-85634052D01*
X183483170Y-85488828D01*
X183241672Y-85388796D01*
X182985298Y-85337800D01*
X182723902Y-85337800D01*
X182467528Y-85388796D01*
X182226030Y-85488828D01*
X182008687Y-85634052D01*
X181823852Y-85818887D01*
X181678628Y-86036230D01*
X181584600Y-86263233D01*
X181490572Y-86036230D01*
X181345348Y-85818887D01*
X181160513Y-85634052D01*
X180943170Y-85488828D01*
X180701672Y-85388796D01*
X180445298Y-85337800D01*
X180183902Y-85337800D01*
X179927528Y-85388796D01*
X179686030Y-85488828D01*
X179468687Y-85634052D01*
X179283852Y-85818887D01*
X179138628Y-86036230D01*
X179044600Y-86263233D01*
X178950572Y-86036230D01*
X178805348Y-85818887D01*
X178620513Y-85634052D01*
X178403170Y-85488828D01*
X178161672Y-85388796D01*
X177905298Y-85337800D01*
X177643902Y-85337800D01*
X177387528Y-85388796D01*
X177146030Y-85488828D01*
X176928687Y-85634052D01*
X176743852Y-85818887D01*
X176598628Y-86036230D01*
X176504600Y-86263233D01*
X176410572Y-86036230D01*
X176265348Y-85818887D01*
X176080513Y-85634052D01*
X175863170Y-85488828D01*
X175621672Y-85388796D01*
X175365298Y-85337800D01*
X175103902Y-85337800D01*
X174847528Y-85388796D01*
X174606030Y-85488828D01*
X174388687Y-85634052D01*
X174203852Y-85818887D01*
X174058628Y-86036230D01*
X173964600Y-86263233D01*
X173870572Y-86036230D01*
X173725348Y-85818887D01*
X173540513Y-85634052D01*
X173323170Y-85488828D01*
X173081672Y-85388796D01*
X172825298Y-85337800D01*
X172563902Y-85337800D01*
X172307528Y-85388796D01*
X172066030Y-85488828D01*
X171848687Y-85634052D01*
X171663852Y-85818887D01*
X171518628Y-86036230D01*
X171424600Y-86263233D01*
X171330572Y-86036230D01*
X171185348Y-85818887D01*
X171000513Y-85634052D01*
X170783170Y-85488828D01*
X170541672Y-85388796D01*
X170285298Y-85337800D01*
X170023902Y-85337800D01*
X169767528Y-85388796D01*
X169526030Y-85488828D01*
X169308687Y-85634052D01*
X169123852Y-85818887D01*
X168978628Y-86036230D01*
X168884600Y-86263233D01*
X168790572Y-86036230D01*
X168645348Y-85818887D01*
X168460513Y-85634052D01*
X168243170Y-85488828D01*
X168001672Y-85388796D01*
X167745298Y-85337800D01*
X167483902Y-85337800D01*
X167227528Y-85388796D01*
X166986030Y-85488828D01*
X166768687Y-85634052D01*
X166583852Y-85818887D01*
X166438628Y-86036230D01*
X166344600Y-86263233D01*
X166250572Y-86036230D01*
X166105348Y-85818887D01*
X165920513Y-85634052D01*
X165703170Y-85488828D01*
X165461672Y-85388796D01*
X165205298Y-85337800D01*
X164943902Y-85337800D01*
X164687528Y-85388796D01*
X164446030Y-85488828D01*
X164228687Y-85634052D01*
X164043852Y-85818887D01*
X163898628Y-86036230D01*
X163804600Y-86263233D01*
X163710572Y-86036230D01*
X163565348Y-85818887D01*
X163380513Y-85634052D01*
X163163170Y-85488828D01*
X162921672Y-85388796D01*
X162665298Y-85337800D01*
X162403902Y-85337800D01*
X162147528Y-85388796D01*
X161906030Y-85488828D01*
X161688687Y-85634052D01*
X161503852Y-85818887D01*
X161358628Y-86036230D01*
X161262529Y-86268232D01*
X161195960Y-86086228D01*
X161143105Y-85987343D01*
X160947129Y-85891876D01*
X160174205Y-86664800D01*
X159814995Y-86664800D01*
X159042071Y-85891876D01*
X158846095Y-85987343D01*
X158735998Y-86224422D01*
X158725839Y-86266224D01*
X158630572Y-86036230D01*
X158485348Y-85818887D01*
X158378732Y-85712271D01*
X159221676Y-85712271D01*
X159994600Y-86485195D01*
X160767524Y-85712271D01*
X160672057Y-85516295D01*
X160434978Y-85406198D01*
X160180974Y-85344468D01*
X159919809Y-85333478D01*
X159661519Y-85373650D01*
X159416028Y-85463440D01*
X159317143Y-85516295D01*
X159221676Y-85712271D01*
X158378732Y-85712271D01*
X158300513Y-85634052D01*
X158083170Y-85488828D01*
X158081600Y-85488178D01*
X158081600Y-72601422D01*
X158083170Y-72600772D01*
X158300513Y-72455548D01*
X158485348Y-72270713D01*
X158630572Y-72053370D01*
X158724600Y-71826367D01*
X158818628Y-72053370D01*
X158963852Y-72270713D01*
X159148687Y-72455548D01*
X159366030Y-72600772D01*
X159607528Y-72700804D01*
X159863902Y-72751800D01*
X160125298Y-72751800D01*
X160381672Y-72700804D01*
X160623170Y-72600772D01*
X160840513Y-72455548D01*
X161025348Y-72270713D01*
X161170572Y-72053370D01*
X161264600Y-71826367D01*
X161358628Y-72053370D01*
X161503852Y-72270713D01*
X161688687Y-72455548D01*
X161906030Y-72600772D01*
X162147528Y-72700804D01*
X162403902Y-72751800D01*
X162665298Y-72751800D01*
X162921672Y-72700804D01*
X163163170Y-72600772D01*
X163380513Y-72455548D01*
X163565348Y-72270713D01*
X163710572Y-72053370D01*
X163804600Y-71826367D01*
X163898628Y-72053370D01*
X164043852Y-72270713D01*
X164228687Y-72455548D01*
X164446030Y-72600772D01*
X164687528Y-72700804D01*
X164943902Y-72751800D01*
X165205298Y-72751800D01*
X165461672Y-72700804D01*
X165703170Y-72600772D01*
X165920513Y-72455548D01*
X166105348Y-72270713D01*
X166250572Y-72053370D01*
X166344600Y-71826367D01*
X166438628Y-72053370D01*
X166583852Y-72270713D01*
X166768687Y-72455548D01*
X166986030Y-72600772D01*
X167227528Y-72700804D01*
X167483902Y-72751800D01*
X167745298Y-72751800D01*
X168001672Y-72700804D01*
X168003242Y-72700154D01*
X174786466Y-79483378D01*
X174806099Y-79507301D01*
X174901572Y-79585653D01*
X175010497Y-79643875D01*
X175128687Y-79679727D01*
X175251600Y-79691833D01*
X175282394Y-79688800D01*
X196285182Y-79688800D01*
X196367564Y-79812094D01*
X196531506Y-79976036D01*
X196724281Y-80104844D01*
X196938482Y-80193569D01*
X197165876Y-80238800D01*
X197397724Y-80238800D01*
X197625118Y-80193569D01*
X197804802Y-80119142D01*
X197804802Y-80422086D01*
X197543160Y-80683729D01*
X197397724Y-80654800D01*
X197165876Y-80654800D01*
X196938482Y-80700031D01*
X196724281Y-80788756D01*
X196531506Y-80917564D01*
X196367564Y-81081506D01*
X196238756Y-81274281D01*
X196150031Y-81488482D01*
X196104800Y-81715876D01*
X196104800Y-81947724D01*
X196150031Y-82175118D01*
X196238756Y-82389319D01*
X196367564Y-82582094D01*
X196531506Y-82746036D01*
X196724281Y-82874844D01*
X196938482Y-82963569D01*
X197165876Y-83008800D01*
X197397724Y-83008800D01*
X197625118Y-82963569D01*
X197839319Y-82874844D01*
X198032094Y-82746036D01*
X198196036Y-82582094D01*
X198324844Y-82389319D01*
X198413569Y-82175118D01*
X198458800Y-81947724D01*
X198458800Y-81715876D01*
X198429871Y-81570440D01*
X198853379Y-81146933D01*
X198877302Y-81127300D01*
X198912079Y-81084923D01*
X198976508Y-81112487D01*
X199642195Y-80446800D01*
X199628053Y-80432658D01*
X199807658Y-80253053D01*
X199821800Y-80267195D01*
X199835943Y-80253053D01*
X200015548Y-80432658D01*
X200001405Y-80446800D01*
X200015548Y-80460943D01*
X199835943Y-80640548D01*
X199821800Y-80626405D01*
X199156113Y-81292092D01*
X199233395Y-81472736D01*
X199444851Y-81567815D01*
X199670792Y-81619814D01*
X199902538Y-81626736D01*
X200131180Y-81588312D01*
X200347933Y-81506021D01*
X200410205Y-81472736D01*
X200487486Y-81292093D01*
X200518968Y-81323575D01*
X200518968Y-82340025D01*
X200487486Y-82371507D01*
X200410205Y-82190864D01*
X200198749Y-82095785D01*
X199972808Y-82043786D01*
X199741062Y-82036864D01*
X199512420Y-82075288D01*
X199295667Y-82157579D01*
X199233395Y-82190864D01*
X199156113Y-82371508D01*
X199821800Y-83037195D01*
X199835943Y-83023053D01*
X200015548Y-83202658D01*
X200001405Y-83216800D01*
X200015548Y-83230943D01*
X199835943Y-83410548D01*
X199821800Y-83396405D01*
X199807658Y-83410548D01*
X199628053Y-83230943D01*
X199642195Y-83216800D01*
X198976508Y-82551113D01*
X198795864Y-82628395D01*
X198700785Y-82839851D01*
X198648786Y-83065792D01*
X198641864Y-83297538D01*
X198680288Y-83526180D01*
X198762579Y-83742933D01*
X198795864Y-83805205D01*
X198976507Y-83882486D01*
X198896139Y-83962854D01*
X198908085Y-83974800D01*
X198278418Y-83974800D01*
X198196036Y-83851506D01*
X198032094Y-83687564D01*
X197839319Y-83558756D01*
X197625118Y-83470031D01*
X197397724Y-83424800D01*
X197165876Y-83424800D01*
X196938482Y-83470031D01*
X196724281Y-83558756D01*
X196531506Y-83687564D01*
X196367564Y-83851506D01*
X196238756Y-84044281D01*
X196150031Y-84258482D01*
X196104800Y-84485876D01*
X196104800Y-84717724D01*
X196150031Y-84945118D01*
X196238756Y-85159319D01*
X196367564Y-85352094D01*
X196531506Y-85516036D01*
X196724281Y-85644844D01*
X196938482Y-85733569D01*
X197165876Y-85778800D01*
X197397724Y-85778800D01*
X197625118Y-85733569D01*
X197839319Y-85644844D01*
X198032094Y-85516036D01*
X198196036Y-85352094D01*
X198278418Y-85228800D01*
X198908085Y-85228800D01*
X198896139Y-85240746D01*
X198976507Y-85321114D01*
X198795864Y-85398395D01*
X198700785Y-85609851D01*
X198648786Y-85835792D01*
X198641864Y-86067538D01*
X198680288Y-86296180D01*
X198762579Y-86512933D01*
X198795864Y-86575205D01*
X198976507Y-86652486D01*
X198896139Y-86732854D01*
X198908085Y-86744800D01*
X198278418Y-86744800D01*
X198196036Y-86621506D01*
X198032094Y-86457564D01*
X197839319Y-86328756D01*
X197625118Y-86240031D01*
X197397724Y-86194800D01*
X197165876Y-86194800D01*
X196938482Y-86240031D01*
X196724281Y-86328756D01*
X196531506Y-86457564D01*
X196367564Y-86621506D01*
X196238756Y-86814281D01*
X196150031Y-87028482D01*
X196104800Y-87255876D01*
X196104800Y-87487724D01*
X196150031Y-87715118D01*
X196238756Y-87929319D01*
X196367564Y-88122094D01*
X196531506Y-88286036D01*
X196724281Y-88414844D01*
X196938482Y-88503569D01*
X197165876Y-88548800D01*
X197397724Y-88548800D01*
X197625118Y-88503569D01*
X197839319Y-88414844D01*
X198032094Y-88286036D01*
X198196036Y-88122094D01*
X198278418Y-87998800D01*
X198915270Y-87998800D01*
X198907564Y-88006506D01*
X198778756Y-88199281D01*
X198690031Y-88413482D01*
X198644800Y-88640876D01*
X198644800Y-88872724D01*
X198690031Y-89100118D01*
X198778756Y-89314319D01*
X198907564Y-89507094D01*
X198915270Y-89514800D01*
X198278418Y-89514800D01*
X198196036Y-89391506D01*
X198032094Y-89227564D01*
X197839319Y-89098756D01*
X197625118Y-89010031D01*
X197397724Y-88964800D01*
X197165876Y-88964800D01*
X196938482Y-89010031D01*
X196724281Y-89098756D01*
X196531506Y-89227564D01*
X196367564Y-89391506D01*
X196238756Y-89584281D01*
X196150031Y-89798482D01*
X196104800Y-90025876D01*
X196104800Y-90257724D01*
X196150031Y-90485118D01*
X196238756Y-90699319D01*
X196367564Y-90892094D01*
X196531506Y-91056036D01*
X196724281Y-91184844D01*
X196938482Y-91273569D01*
X197165876Y-91318800D01*
X197397724Y-91318800D01*
X197625118Y-91273569D01*
X197839319Y-91184844D01*
X198032094Y-91056036D01*
X198196036Y-90892094D01*
X198278418Y-90768800D01*
X198915270Y-90768800D01*
X198907564Y-90776506D01*
X198778756Y-90969281D01*
X198690031Y-91183482D01*
X198644800Y-91410876D01*
X198644800Y-91642724D01*
X198690031Y-91870118D01*
X198778756Y-92084319D01*
X198907564Y-92277094D01*
X199071506Y-92441036D01*
X199264281Y-92569844D01*
X199478482Y-92658569D01*
X199705876Y-92703800D01*
X199937724Y-92703800D01*
X200165118Y-92658569D01*
X200379319Y-92569844D01*
X200572094Y-92441036D01*
X200736036Y-92277094D01*
X200864844Y-92084319D01*
X200953569Y-91870118D01*
X200998800Y-91642724D01*
X200998800Y-91410876D01*
X200953569Y-91183482D01*
X200864844Y-90969281D01*
X200736036Y-90776506D01*
X200720374Y-90760844D01*
X200731713Y-90759727D01*
X200849903Y-90723875D01*
X200958828Y-90665653D01*
X201054301Y-90587301D01*
X201073938Y-90563373D01*
X203367578Y-88269734D01*
X203391501Y-88250101D01*
X203469853Y-88154628D01*
X203528075Y-88045703D01*
X203563927Y-87927513D01*
X203573000Y-87835394D01*
X203576033Y-87804600D01*
X203573000Y-87773806D01*
X203573000Y-70388793D01*
X203576033Y-70357999D01*
X203563927Y-70235087D01*
X203537751Y-70148796D01*
X203528075Y-70116897D01*
X203469853Y-70007972D01*
X203391501Y-69912499D01*
X203367579Y-69892867D01*
X201125138Y-67650427D01*
X201105501Y-67626499D01*
X201010028Y-67548147D01*
X200901103Y-67489925D01*
X200782913Y-67454073D01*
X200690794Y-67445000D01*
X200660000Y-67441967D01*
X200639105Y-67444025D01*
X200736036Y-67347094D01*
X200864844Y-67154319D01*
X200953569Y-66940118D01*
X200998800Y-66712724D01*
X200998800Y-66480876D01*
X200953569Y-66253482D01*
X200864844Y-66039281D01*
X200736036Y-65846506D01*
X200572094Y-65682564D01*
X200379319Y-65553756D01*
X200165118Y-65465031D01*
X199937724Y-65419800D01*
X199705876Y-65419800D01*
X199478482Y-65465031D01*
X199264281Y-65553756D01*
X199071506Y-65682564D01*
X198907564Y-65846506D01*
X198778756Y-66039281D01*
X198690031Y-66253482D01*
X198651567Y-66446856D01*
X198331138Y-66126427D01*
X198311501Y-66102499D01*
X198216028Y-66024147D01*
X198162562Y-65995568D01*
X198196036Y-65962094D01*
X198324844Y-65769319D01*
X198413569Y-65555118D01*
X198458800Y-65327724D01*
X198458800Y-65095876D01*
X198413569Y-64868482D01*
X198324844Y-64654281D01*
X198196036Y-64461506D01*
X198032094Y-64297564D01*
X197839319Y-64168756D01*
X197625118Y-64080031D01*
X197397724Y-64034800D01*
X197165876Y-64034800D01*
X196938482Y-64080031D01*
X196724281Y-64168756D01*
X196531506Y-64297564D01*
X196367564Y-64461506D01*
X196238756Y-64654281D01*
X196150031Y-64868482D01*
X196104800Y-65095876D01*
X196104800Y-65327724D01*
X196150031Y-65555118D01*
X196238756Y-65769319D01*
X196340106Y-65921000D01*
X182682194Y-65921000D01*
X182651400Y-65917967D01*
X182620606Y-65921000D01*
X182528487Y-65930073D01*
X182410297Y-65965925D01*
X182301372Y-66024147D01*
X182205899Y-66102499D01*
X182186266Y-66126422D01*
X178163242Y-70149446D01*
X178161672Y-70148796D01*
X177905298Y-70097800D01*
X177643902Y-70097800D01*
X177387528Y-70148796D01*
X177146030Y-70248828D01*
X176928687Y-70394052D01*
X176743852Y-70578887D01*
X176598628Y-70796230D01*
X176504600Y-71023233D01*
X176410572Y-70796230D01*
X176265348Y-70578887D01*
X176080513Y-70394052D01*
X175863170Y-70248828D01*
X175621672Y-70148796D01*
X175365298Y-70097800D01*
X175103902Y-70097800D01*
X174847528Y-70148796D01*
X174606030Y-70248828D01*
X174388687Y-70394052D01*
X174203852Y-70578887D01*
X174058628Y-70796230D01*
X173964600Y-71023233D01*
X173870572Y-70796230D01*
X173725348Y-70578887D01*
X173540513Y-70394052D01*
X173323170Y-70248828D01*
X173081672Y-70148796D01*
X172825298Y-70097800D01*
X172563902Y-70097800D01*
X172307528Y-70148796D01*
X172066030Y-70248828D01*
X171848687Y-70394052D01*
X171663852Y-70578887D01*
X171518628Y-70796230D01*
X171424600Y-71023233D01*
X171330572Y-70796230D01*
X171185348Y-70578887D01*
X171000513Y-70394052D01*
X170783170Y-70248828D01*
X170541672Y-70148796D01*
X170285298Y-70097800D01*
X170023902Y-70097800D01*
X169767528Y-70148796D01*
X169526030Y-70248828D01*
X169308687Y-70394052D01*
X169123852Y-70578887D01*
X168978628Y-70796230D01*
X168884600Y-71023233D01*
X168790572Y-70796230D01*
X168645348Y-70578887D01*
X168460513Y-70394052D01*
X168243170Y-70248828D01*
X168001672Y-70148796D01*
X167745298Y-70097800D01*
X167483902Y-70097800D01*
X167227528Y-70148796D01*
X166986030Y-70248828D01*
X166768687Y-70394052D01*
X166583852Y-70578887D01*
X166438628Y-70796230D01*
X166344600Y-71023233D01*
X166250572Y-70796230D01*
X166105348Y-70578887D01*
X165920513Y-70394052D01*
X165703170Y-70248828D01*
X165461672Y-70148796D01*
X165205298Y-70097800D01*
X164943902Y-70097800D01*
X164687528Y-70148796D01*
X164446030Y-70248828D01*
X164228687Y-70394052D01*
X164043852Y-70578887D01*
X163898628Y-70796230D01*
X163804600Y-71023233D01*
X163710572Y-70796230D01*
X163565348Y-70578887D01*
X163380513Y-70394052D01*
X163163170Y-70248828D01*
X162921672Y-70148796D01*
X162665298Y-70097800D01*
X162403902Y-70097800D01*
X162147528Y-70148796D01*
X161906030Y-70248828D01*
X161688687Y-70394052D01*
X161503852Y-70578887D01*
X161358628Y-70796230D01*
X161264600Y-71023233D01*
X161170572Y-70796230D01*
X161025348Y-70578887D01*
X160840513Y-70394052D01*
X160623170Y-70248828D01*
X160381672Y-70148796D01*
X160125298Y-70097800D01*
X159863902Y-70097800D01*
X159607528Y-70148796D01*
X159366030Y-70248828D01*
X159148687Y-70394052D01*
X158963852Y-70578887D01*
X158818628Y-70796230D01*
X158724600Y-71023233D01*
X158630572Y-70796230D01*
X158485348Y-70578887D01*
X158300513Y-70394052D01*
X158083170Y-70248828D01*
X157841672Y-70148796D01*
X157585298Y-70097800D01*
X157323902Y-70097800D01*
X157067528Y-70148796D01*
X156826030Y-70248828D01*
X156608687Y-70394052D01*
X156423852Y-70578887D01*
X156278628Y-70796230D01*
X156182529Y-71028232D01*
X156115960Y-70846228D01*
X156063105Y-70747343D01*
X155867129Y-70651876D01*
X155094205Y-71424800D01*
X155867129Y-72197724D01*
X156063105Y-72102257D01*
X156173202Y-71865178D01*
X156183361Y-71823376D01*
X156278628Y-72053370D01*
X156423852Y-72270713D01*
X156608687Y-72455548D01*
X156826030Y-72600772D01*
X156827600Y-72601422D01*
X156827601Y-85488177D01*
X156826030Y-85488828D01*
X156608687Y-85634052D01*
X156423852Y-85818887D01*
X156278628Y-86036230D01*
X156184600Y-86263233D01*
X156090572Y-86036230D01*
X155945348Y-85818887D01*
X155760513Y-85634052D01*
X155543170Y-85488828D01*
X155301672Y-85388796D01*
X155045298Y-85337800D01*
X154783902Y-85337800D01*
X154527528Y-85388796D01*
X154286030Y-85488828D01*
X154068687Y-85634052D01*
X153883852Y-85818887D01*
X153738628Y-86036230D01*
X153703666Y-86120636D01*
X153703666Y-85764800D01*
X153695422Y-85681093D01*
X153671005Y-85600604D01*
X153631355Y-85526424D01*
X153577995Y-85461405D01*
X153512976Y-85408045D01*
X153438796Y-85368395D01*
X153358307Y-85343978D01*
X153274600Y-85335734D01*
X151474600Y-85335734D01*
X151390893Y-85343978D01*
X151310404Y-85368395D01*
X151236224Y-85408045D01*
X151171205Y-85461405D01*
X151117845Y-85526424D01*
X151078195Y-85600604D01*
X151053778Y-85681093D01*
X151045534Y-85764800D01*
X149042000Y-85764800D01*
X149042000Y-71294102D01*
X151047600Y-71294102D01*
X151047600Y-71555498D01*
X151098596Y-71811872D01*
X151198628Y-72053370D01*
X151343852Y-72270713D01*
X151528687Y-72455548D01*
X151746030Y-72600772D01*
X151987528Y-72700804D01*
X152243902Y-72751800D01*
X152505298Y-72751800D01*
X152761672Y-72700804D01*
X153003170Y-72600772D01*
X153220513Y-72455548D01*
X153298732Y-72377329D01*
X154141676Y-72377329D01*
X154237143Y-72573305D01*
X154474222Y-72683402D01*
X154728226Y-72745132D01*
X154989391Y-72756122D01*
X155247681Y-72715950D01*
X155493172Y-72626160D01*
X155592057Y-72573305D01*
X155687524Y-72377329D01*
X154914600Y-71604405D01*
X154141676Y-72377329D01*
X153298732Y-72377329D01*
X153405348Y-72270713D01*
X153550572Y-72053370D01*
X153646671Y-71821368D01*
X153713240Y-72003372D01*
X153766095Y-72102257D01*
X153962071Y-72197724D01*
X154734995Y-71424800D01*
X153962071Y-70651876D01*
X153766095Y-70747343D01*
X153655998Y-70984422D01*
X153645839Y-71026224D01*
X153550572Y-70796230D01*
X153405348Y-70578887D01*
X153298732Y-70472271D01*
X154141676Y-70472271D01*
X154914600Y-71245195D01*
X155687524Y-70472271D01*
X155592057Y-70276295D01*
X155354978Y-70166198D01*
X155100974Y-70104468D01*
X154839809Y-70093478D01*
X154581519Y-70133650D01*
X154336028Y-70223440D01*
X154237143Y-70276295D01*
X154141676Y-70472271D01*
X153298732Y-70472271D01*
X153220513Y-70394052D01*
X153003170Y-70248828D01*
X152761672Y-70148796D01*
X152505298Y-70097800D01*
X152243902Y-70097800D01*
X151987528Y-70148796D01*
X151746030Y-70248828D01*
X151528687Y-70394052D01*
X151343852Y-70578887D01*
X151198628Y-70796230D01*
X151098596Y-71037728D01*
X151047600Y-71294102D01*
X149042000Y-71294102D01*
X149042000Y-65505386D01*
X150720219Y-65505386D01*
X150818711Y-65703920D01*
X151060058Y-65816518D01*
X151318734Y-65879868D01*
X151584799Y-65891536D01*
X151848028Y-65851073D01*
X152098305Y-65760034D01*
X152203289Y-65703920D01*
X152301781Y-65505386D01*
X151511000Y-64714605D01*
X150720219Y-65505386D01*
X149042000Y-65505386D01*
X149042000Y-64608799D01*
X150154464Y-64608799D01*
X150194927Y-64872028D01*
X150285966Y-65122305D01*
X150342080Y-65227289D01*
X150540614Y-65325781D01*
X151331395Y-64535000D01*
X151690605Y-64535000D01*
X152481386Y-65325781D01*
X152679920Y-65227289D01*
X152792518Y-64985942D01*
X152855868Y-64727266D01*
X152867536Y-64461201D01*
X152827073Y-64197972D01*
X152736034Y-63947695D01*
X152679920Y-63842711D01*
X152481386Y-63744219D01*
X151690605Y-64535000D01*
X151331395Y-64535000D01*
X150540614Y-63744219D01*
X150342080Y-63842711D01*
X150229482Y-64084058D01*
X150166132Y-64342734D01*
X150154464Y-64608799D01*
X149042000Y-64608799D01*
X149042000Y-63564614D01*
X150720219Y-63564614D01*
X151511000Y-64355395D01*
X152301781Y-63564614D01*
X152203289Y-63366080D01*
X151961942Y-63253482D01*
X151703266Y-63190132D01*
X151437201Y-63178464D01*
X151173972Y-63218927D01*
X150923695Y-63309966D01*
X150818711Y-63366080D01*
X150720219Y-63564614D01*
X149042000Y-63564614D01*
X149042000Y-62650000D01*
X157216934Y-62650000D01*
X157216934Y-64350000D01*
X157225178Y-64433707D01*
X157249595Y-64514196D01*
X157289245Y-64588376D01*
X157342605Y-64653395D01*
X157407624Y-64706755D01*
X157481804Y-64746405D01*
X157562293Y-64770822D01*
X157646000Y-64779066D01*
X159346000Y-64779066D01*
X159429707Y-64770822D01*
X159510196Y-64746405D01*
X159584376Y-64706755D01*
X159649395Y-64653395D01*
X159702755Y-64588376D01*
X159742405Y-64514196D01*
X159766822Y-64433707D01*
X159775066Y-64350000D01*
X159775066Y-63710876D01*
X198644800Y-63710876D01*
X198644800Y-63942724D01*
X198690031Y-64170118D01*
X198778756Y-64384319D01*
X198907564Y-64577094D01*
X199071506Y-64741036D01*
X199264281Y-64869844D01*
X199478482Y-64958569D01*
X199705876Y-65003800D01*
X199937724Y-65003800D01*
X200165118Y-64958569D01*
X200379319Y-64869844D01*
X200572094Y-64741036D01*
X200736036Y-64577094D01*
X200864844Y-64384319D01*
X200953569Y-64170118D01*
X200998800Y-63942724D01*
X200998800Y-63710876D01*
X200953569Y-63483482D01*
X200864844Y-63269281D01*
X200736036Y-63076506D01*
X200572094Y-62912564D01*
X200379319Y-62783756D01*
X200165118Y-62695031D01*
X199937724Y-62649800D01*
X199705876Y-62649800D01*
X199478482Y-62695031D01*
X199264281Y-62783756D01*
X199071506Y-62912564D01*
X198907564Y-63076506D01*
X198778756Y-63269281D01*
X198690031Y-63483482D01*
X198644800Y-63710876D01*
X159775066Y-63710876D01*
X159775066Y-62650000D01*
X159766822Y-62566293D01*
X159742405Y-62485804D01*
X159702755Y-62411624D01*
X159649395Y-62346605D01*
X159624137Y-62325876D01*
X196104800Y-62325876D01*
X196104800Y-62557724D01*
X196150031Y-62785118D01*
X196238756Y-62999319D01*
X196367564Y-63192094D01*
X196531506Y-63356036D01*
X196724281Y-63484844D01*
X196938482Y-63573569D01*
X197165876Y-63618800D01*
X197397724Y-63618800D01*
X197625118Y-63573569D01*
X197839319Y-63484844D01*
X198032094Y-63356036D01*
X198196036Y-63192094D01*
X198324844Y-62999319D01*
X198413569Y-62785118D01*
X198458800Y-62557724D01*
X198458800Y-62325876D01*
X198413569Y-62098482D01*
X198324844Y-61884281D01*
X198196036Y-61691506D01*
X198032094Y-61527564D01*
X197839319Y-61398756D01*
X197625118Y-61310031D01*
X197397724Y-61264800D01*
X197165876Y-61264800D01*
X196938482Y-61310031D01*
X196724281Y-61398756D01*
X196531506Y-61527564D01*
X196367564Y-61691506D01*
X196238756Y-61884281D01*
X196150031Y-62098482D01*
X196104800Y-62325876D01*
X159624137Y-62325876D01*
X159584376Y-62293245D01*
X159510196Y-62253595D01*
X159429707Y-62229178D01*
X159346000Y-62220934D01*
X158623002Y-62220934D01*
X158623002Y-62123926D01*
X158820214Y-62195164D01*
X159054953Y-62108180D01*
X159268212Y-61977072D01*
X159451795Y-61806878D01*
X159598647Y-61604139D01*
X159703125Y-61376646D01*
X159731158Y-61284213D01*
X159659338Y-61087000D01*
X158623000Y-61087000D01*
X158623000Y-61107000D01*
X158369000Y-61107000D01*
X158369000Y-61087000D01*
X157332662Y-61087000D01*
X157260842Y-61284213D01*
X157288875Y-61376646D01*
X157393353Y-61604139D01*
X157540205Y-61806878D01*
X157723788Y-61977072D01*
X157937047Y-62108180D01*
X158171786Y-62195164D01*
X158368998Y-62123926D01*
X158368998Y-62220934D01*
X157646000Y-62220934D01*
X157562293Y-62229178D01*
X157481804Y-62253595D01*
X157407624Y-62293245D01*
X157342605Y-62346605D01*
X157289245Y-62411624D01*
X157249595Y-62485804D01*
X157225178Y-62566293D01*
X157216934Y-62650000D01*
X149042000Y-62650000D01*
X149042000Y-58355386D01*
X150720219Y-58355386D01*
X150818711Y-58553920D01*
X151060058Y-58666518D01*
X151318734Y-58729868D01*
X151584799Y-58741536D01*
X151848028Y-58701073D01*
X152098305Y-58610034D01*
X152203289Y-58553920D01*
X152301781Y-58355386D01*
X152240621Y-58294226D01*
X157219000Y-58294226D01*
X157219000Y-58545774D01*
X157268074Y-58792487D01*
X157364337Y-59024886D01*
X157504089Y-59234040D01*
X157681960Y-59411911D01*
X157891114Y-59551663D01*
X158123513Y-59647926D01*
X158368998Y-59696756D01*
X158368998Y-59796074D01*
X158171786Y-59724836D01*
X157937047Y-59811820D01*
X157723788Y-59942928D01*
X157540205Y-60113122D01*
X157393353Y-60315861D01*
X157288875Y-60543354D01*
X157260842Y-60635787D01*
X157332662Y-60833000D01*
X158369000Y-60833000D01*
X158369000Y-60813000D01*
X158623000Y-60813000D01*
X158623000Y-60833000D01*
X159659338Y-60833000D01*
X159731158Y-60635787D01*
X159703125Y-60543354D01*
X159598647Y-60315861D01*
X159451795Y-60113122D01*
X159268212Y-59942928D01*
X159054953Y-59811820D01*
X158820214Y-59724836D01*
X158623002Y-59796074D01*
X158623002Y-59696756D01*
X158868487Y-59647926D01*
X159100886Y-59551663D01*
X159310040Y-59411911D01*
X159487911Y-59234040D01*
X159627663Y-59024886D01*
X159723926Y-58792487D01*
X159773000Y-58545774D01*
X159773000Y-58294226D01*
X159723926Y-58047513D01*
X159627663Y-57815114D01*
X159487911Y-57605960D01*
X159310040Y-57428089D01*
X159100886Y-57288337D01*
X158868487Y-57192074D01*
X158621774Y-57143000D01*
X158370226Y-57143000D01*
X158123513Y-57192074D01*
X157891114Y-57288337D01*
X157681960Y-57428089D01*
X157504089Y-57605960D01*
X157364337Y-57815114D01*
X157268074Y-58047513D01*
X157219000Y-58294226D01*
X152240621Y-58294226D01*
X151511000Y-57564605D01*
X150720219Y-58355386D01*
X149042000Y-58355386D01*
X149042000Y-57458799D01*
X150154464Y-57458799D01*
X150194927Y-57722028D01*
X150285966Y-57972305D01*
X150342080Y-58077289D01*
X150540614Y-58175781D01*
X151331395Y-57385000D01*
X151690605Y-57385000D01*
X152481386Y-58175781D01*
X152679920Y-58077289D01*
X152792518Y-57835942D01*
X152855868Y-57577266D01*
X152867536Y-57311201D01*
X152827073Y-57047972D01*
X152752157Y-56842017D01*
X173149000Y-56842017D01*
X173149000Y-57457983D01*
X173269169Y-58062112D01*
X173504889Y-58631190D01*
X173847101Y-59143346D01*
X174282654Y-59578899D01*
X174794810Y-59921111D01*
X175363888Y-60156831D01*
X175968017Y-60277000D01*
X176583983Y-60277000D01*
X177188112Y-60156831D01*
X177757190Y-59921111D01*
X178269346Y-59578899D01*
X178704899Y-59143346D01*
X179047111Y-58631190D01*
X179282831Y-58062112D01*
X179382171Y-57562696D01*
X196710509Y-57562696D01*
X196986505Y-57912308D01*
X197479045Y-58172133D01*
X198012810Y-58330876D01*
X198567288Y-58382436D01*
X199121171Y-58324832D01*
X199653173Y-58160278D01*
X200117095Y-57912308D01*
X200393091Y-57562696D01*
X198551800Y-55721405D01*
X196710509Y-57562696D01*
X179382171Y-57562696D01*
X179403000Y-57457983D01*
X179403000Y-56842017D01*
X179282831Y-56237888D01*
X179047111Y-55668810D01*
X178972595Y-55557288D01*
X195711164Y-55557288D01*
X195768768Y-56111171D01*
X195933322Y-56643173D01*
X196181292Y-57107095D01*
X196530904Y-57383091D01*
X198372195Y-55541800D01*
X198731405Y-55541800D01*
X200572696Y-57383091D01*
X200922308Y-57107095D01*
X201182133Y-56614555D01*
X201340876Y-56080790D01*
X201392436Y-55526312D01*
X201334832Y-54972429D01*
X201170278Y-54440427D01*
X200922308Y-53976505D01*
X200572696Y-53700509D01*
X198731405Y-55541800D01*
X198372195Y-55541800D01*
X196530904Y-53700509D01*
X196181292Y-53976505D01*
X195921467Y-54469045D01*
X195762724Y-55002810D01*
X195711164Y-55557288D01*
X178972595Y-55557288D01*
X178704899Y-55156654D01*
X178269346Y-54721101D01*
X177757190Y-54378889D01*
X177188112Y-54143169D01*
X176583983Y-54023000D01*
X175968017Y-54023000D01*
X175363888Y-54143169D01*
X174794810Y-54378889D01*
X174282654Y-54721101D01*
X173847101Y-55156654D01*
X173504889Y-55668810D01*
X173269169Y-56237888D01*
X173149000Y-56842017D01*
X152752157Y-56842017D01*
X152736034Y-56797695D01*
X152679920Y-56692711D01*
X152481386Y-56594219D01*
X151690605Y-57385000D01*
X151331395Y-57385000D01*
X150540614Y-56594219D01*
X150342080Y-56692711D01*
X150229482Y-56934058D01*
X150166132Y-57192734D01*
X150154464Y-57458799D01*
X149042000Y-57458799D01*
X149042000Y-56414614D01*
X150720219Y-56414614D01*
X151511000Y-57205395D01*
X152301781Y-56414614D01*
X152203289Y-56216080D01*
X151961942Y-56103482D01*
X151703266Y-56040132D01*
X151437201Y-56028464D01*
X151173972Y-56068927D01*
X150923695Y-56159966D01*
X150818711Y-56216080D01*
X150720219Y-56414614D01*
X149042000Y-56414614D01*
X149042000Y-53030000D01*
X197250845Y-53030000D01*
X196986505Y-53171292D01*
G36*
X200015548Y-85972658D02*
G01*
X200001405Y-85986800D01*
X200015548Y-86000943D01*
X199835943Y-86180548D01*
X199821800Y-86166405D01*
X199807658Y-86180548D01*
X199628053Y-86000943D01*
X199642195Y-85986800D01*
X199628053Y-85972658D01*
X199807658Y-85793053D01*
X199821800Y-85807195D01*
X199835943Y-85793053D01*
X200015548Y-85972658D01*
G37*
X200015548Y-85972658D02*
X200001405Y-85986800D01*
X200015548Y-86000943D01*
X199835943Y-86180548D01*
X199821800Y-86166405D01*
X199807658Y-86180548D01*
X199628053Y-86000943D01*
X199642195Y-85986800D01*
X199628053Y-85972658D01*
X199807658Y-85793053D01*
X199821800Y-85807195D01*
X199835943Y-85793053D01*
X200015548Y-85972658D01*
G36*
X175988666Y-78145578D02*
G01*
X176008299Y-78169501D01*
X176103772Y-78247853D01*
X176212697Y-78306075D01*
X176330887Y-78341927D01*
X176453799Y-78354033D01*
X176484593Y-78351000D01*
X196341175Y-78351000D01*
X196285182Y-78434800D01*
X175511312Y-78434800D01*
X169779745Y-72703234D01*
X170023902Y-72751800D01*
X170285298Y-72751800D01*
X170541672Y-72700804D01*
X170543242Y-72700154D01*
X175988666Y-78145578D01*
G37*
X175988666Y-78145578D02*
X176008299Y-78169501D01*
X176103772Y-78247853D01*
X176212697Y-78306075D01*
X176330887Y-78341927D01*
X176453799Y-78354033D01*
X176484593Y-78351000D01*
X196341175Y-78351000D01*
X196285182Y-78434800D01*
X175511312Y-78434800D01*
X169779745Y-72703234D01*
X170023902Y-72751800D01*
X170285298Y-72751800D01*
X170541672Y-72700804D01*
X170543242Y-72700154D01*
X175988666Y-78145578D01*
G36*
X198670866Y-76621578D02*
G01*
X198690499Y-76645501D01*
X198785972Y-76723853D01*
X198894897Y-76782075D01*
X199013087Y-76817927D01*
X199135999Y-76830033D01*
X199157657Y-76827900D01*
X199156113Y-76831508D01*
X199821800Y-77497195D01*
X199835943Y-77483053D01*
X200015548Y-77662658D01*
X200001405Y-77676800D01*
X200015548Y-77690943D01*
X199835943Y-77870548D01*
X199821800Y-77856405D01*
X199807658Y-77870548D01*
X199628053Y-77690943D01*
X199642195Y-77676800D01*
X198976508Y-77011113D01*
X198795864Y-77088395D01*
X198700785Y-77299851D01*
X198648786Y-77525792D01*
X198646545Y-77600832D01*
X198348139Y-77302427D01*
X198328502Y-77278499D01*
X198233029Y-77200147D01*
X198124104Y-77141925D01*
X198102698Y-77135432D01*
X198196036Y-77042094D01*
X198324844Y-76849319D01*
X198413569Y-76635118D01*
X198458503Y-76409215D01*
X198670866Y-76621578D01*
G37*
X198670866Y-76621578D02*
X198690499Y-76645501D01*
X198785972Y-76723853D01*
X198894897Y-76782075D01*
X199013087Y-76817927D01*
X199135999Y-76830033D01*
X199157657Y-76827900D01*
X199156113Y-76831508D01*
X199821800Y-77497195D01*
X199835943Y-77483053D01*
X200015548Y-77662658D01*
X200001405Y-77676800D01*
X200015548Y-77690943D01*
X199835943Y-77870548D01*
X199821800Y-77856405D01*
X199807658Y-77870548D01*
X199628053Y-77690943D01*
X199642195Y-77676800D01*
X198976508Y-77011113D01*
X198795864Y-77088395D01*
X198700785Y-77299851D01*
X198648786Y-77525792D01*
X198646545Y-77600832D01*
X198348139Y-77302427D01*
X198328502Y-77278499D01*
X198233029Y-77200147D01*
X198124104Y-77141925D01*
X198102698Y-77135432D01*
X198196036Y-77042094D01*
X198324844Y-76849319D01*
X198413569Y-76635118D01*
X198458503Y-76409215D01*
X198670866Y-76621578D01*
G36*
X175946465Y-75563377D02*
G01*
X175966098Y-75587300D01*
X176061571Y-75665652D01*
X176170496Y-75723874D01*
X176288686Y-75759726D01*
X176380805Y-75768799D01*
X176380806Y-75768799D01*
X176411598Y-75771832D01*
X176442390Y-75768799D01*
X196224458Y-75768799D01*
X196150031Y-75948482D01*
X196104800Y-76175876D01*
X196104800Y-76407724D01*
X196150031Y-76635118D01*
X196238756Y-76849319D01*
X196367564Y-77042094D01*
X196422470Y-77097000D01*
X176713512Y-77097000D01*
X172319745Y-72703234D01*
X172563902Y-72751800D01*
X172825298Y-72751800D01*
X173081672Y-72700804D01*
X173083242Y-72700154D01*
X175946465Y-75563377D01*
G37*
X175946465Y-75563377D02*
X175966098Y-75587300D01*
X176061571Y-75665652D01*
X176170496Y-75723874D01*
X176288686Y-75759726D01*
X176380805Y-75768799D01*
X176380806Y-75768799D01*
X176411598Y-75771832D01*
X176442390Y-75768799D01*
X196224458Y-75768799D01*
X196150031Y-75948482D01*
X196104800Y-76175876D01*
X196104800Y-76407724D01*
X196150031Y-76635118D01*
X196238756Y-76849319D01*
X196367564Y-77042094D01*
X196422470Y-77097000D01*
X176713512Y-77097000D01*
X172319745Y-72703234D01*
X172563902Y-72751800D01*
X172825298Y-72751800D01*
X173081672Y-72700804D01*
X173083242Y-72700154D01*
X175946465Y-75563377D01*
G36*
X198670866Y-73827578D02*
G01*
X198690499Y-73851501D01*
X198785972Y-73929853D01*
X198894897Y-73988075D01*
X199013087Y-74023927D01*
X199135999Y-74036033D01*
X199166793Y-74033000D01*
X199168309Y-74033000D01*
X199156113Y-74061508D01*
X199821800Y-74727195D01*
X199835943Y-74713053D01*
X200015548Y-74892658D01*
X200001405Y-74906800D01*
X200015548Y-74920943D01*
X199835943Y-75100548D01*
X199821800Y-75086405D01*
X199807658Y-75100548D01*
X199628053Y-74920943D01*
X199642195Y-74906800D01*
X198976508Y-74241113D01*
X198795864Y-74318395D01*
X198700785Y-74529851D01*
X198648786Y-74755792D01*
X198646748Y-74824036D01*
X198542937Y-74720226D01*
X198523300Y-74696298D01*
X198427827Y-74617946D01*
X198318902Y-74559724D01*
X198200712Y-74523872D01*
X198108593Y-74514799D01*
X198077799Y-74511766D01*
X198047005Y-74514799D01*
X197914217Y-74514799D01*
X198032094Y-74436036D01*
X198196036Y-74272094D01*
X198324844Y-74079319D01*
X198413569Y-73865118D01*
X198458800Y-73637724D01*
X198458800Y-73615512D01*
X198670866Y-73827578D01*
G37*
X198670866Y-73827578D02*
X198690499Y-73851501D01*
X198785972Y-73929853D01*
X198894897Y-73988075D01*
X199013087Y-74023927D01*
X199135999Y-74036033D01*
X199166793Y-74033000D01*
X199168309Y-74033000D01*
X199156113Y-74061508D01*
X199821800Y-74727195D01*
X199835943Y-74713053D01*
X200015548Y-74892658D01*
X200001405Y-74906800D01*
X200015548Y-74920943D01*
X199835943Y-75100548D01*
X199821800Y-75086405D01*
X199807658Y-75100548D01*
X199628053Y-74920943D01*
X199642195Y-74906800D01*
X198976508Y-74241113D01*
X198795864Y-74318395D01*
X198700785Y-74529851D01*
X198648786Y-74755792D01*
X198646748Y-74824036D01*
X198542937Y-74720226D01*
X198523300Y-74696298D01*
X198427827Y-74617946D01*
X198318902Y-74559724D01*
X198200712Y-74523872D01*
X198108593Y-74514799D01*
X198077799Y-74511766D01*
X198047005Y-74514799D01*
X197914217Y-74514799D01*
X198032094Y-74436036D01*
X198196036Y-74272094D01*
X198324844Y-74079319D01*
X198413569Y-73865118D01*
X198458800Y-73637724D01*
X198458800Y-73615512D01*
X198670866Y-73827578D01*
G36*
X176314461Y-73391372D02*
G01*
X176334098Y-73415300D01*
X176429570Y-73493651D01*
X176429571Y-73493652D01*
X176538495Y-73551874D01*
X176656686Y-73587726D01*
X176779599Y-73599832D01*
X176810393Y-73596799D01*
X195916206Y-73596799D01*
X195947000Y-73599832D01*
X195977794Y-73596799D01*
X196069913Y-73587726D01*
X196104800Y-73577143D01*
X196104800Y-73637724D01*
X196150031Y-73865118D01*
X196238756Y-74079319D01*
X196367564Y-74272094D01*
X196531506Y-74436036D01*
X196649383Y-74514799D01*
X176671311Y-74514799D01*
X174859746Y-72703234D01*
X175103902Y-72751800D01*
X175365298Y-72751800D01*
X175621672Y-72700804D01*
X175623242Y-72700153D01*
X176314461Y-73391372D01*
G37*
X176314461Y-73391372D02*
X176334098Y-73415300D01*
X176429570Y-73493651D01*
X176429571Y-73493652D01*
X176538495Y-73551874D01*
X176656686Y-73587726D01*
X176779599Y-73599832D01*
X176810393Y-73596799D01*
X195916206Y-73596799D01*
X195947000Y-73599832D01*
X195977794Y-73596799D01*
X196069913Y-73587726D01*
X196104800Y-73577143D01*
X196104800Y-73637724D01*
X196150031Y-73865118D01*
X196238756Y-74079319D01*
X196367564Y-74272094D01*
X196531506Y-74436036D01*
X196649383Y-74514799D01*
X176671311Y-74514799D01*
X174859746Y-72703234D01*
X175103902Y-72751800D01*
X175365298Y-72751800D01*
X175621672Y-72700804D01*
X175623242Y-72700153D01*
X176314461Y-73391372D01*
G36*
X196367564Y-70001506D02*
G01*
X196238756Y-70194281D01*
X196150031Y-70408482D01*
X196104800Y-70635876D01*
X196104800Y-70867724D01*
X196150031Y-71095118D01*
X196238756Y-71309319D01*
X196367564Y-71502094D01*
X196461299Y-71595829D01*
X196430771Y-71612147D01*
X196335298Y-71690499D01*
X196315665Y-71714422D01*
X195687289Y-72342799D01*
X188893262Y-72342799D01*
X188965348Y-72270713D01*
X189110572Y-72053370D01*
X189210604Y-71811872D01*
X189261600Y-71555498D01*
X189261600Y-71294102D01*
X189210604Y-71037728D01*
X189110572Y-70796230D01*
X188965348Y-70578887D01*
X188780513Y-70394052D01*
X188563170Y-70248828D01*
X188321672Y-70148796D01*
X188065298Y-70097800D01*
X187803902Y-70097800D01*
X187547528Y-70148796D01*
X187306030Y-70248828D01*
X187088687Y-70394052D01*
X186903852Y-70578887D01*
X186758628Y-70796230D01*
X186664600Y-71023233D01*
X186570572Y-70796230D01*
X186425348Y-70578887D01*
X186240513Y-70394052D01*
X186023170Y-70248828D01*
X185781672Y-70148796D01*
X185525298Y-70097800D01*
X185263902Y-70097800D01*
X185007528Y-70148796D01*
X184766030Y-70248828D01*
X184548687Y-70394052D01*
X184363852Y-70578887D01*
X184218628Y-70796230D01*
X184124600Y-71023233D01*
X184030572Y-70796230D01*
X183885348Y-70578887D01*
X183700513Y-70394052D01*
X183483170Y-70248828D01*
X183241672Y-70148796D01*
X182985298Y-70097800D01*
X182723902Y-70097800D01*
X182479746Y-70146366D01*
X182657112Y-69969000D01*
X196400070Y-69969000D01*
X196367564Y-70001506D01*
G37*
X196367564Y-70001506D02*
X196238756Y-70194281D01*
X196150031Y-70408482D01*
X196104800Y-70635876D01*
X196104800Y-70867724D01*
X196150031Y-71095118D01*
X196238756Y-71309319D01*
X196367564Y-71502094D01*
X196461299Y-71595829D01*
X196430771Y-71612147D01*
X196335298Y-71690499D01*
X196315665Y-71714422D01*
X195687289Y-72342799D01*
X188893262Y-72342799D01*
X188965348Y-72270713D01*
X189110572Y-72053370D01*
X189210604Y-71811872D01*
X189261600Y-71555498D01*
X189261600Y-71294102D01*
X189210604Y-71037728D01*
X189110572Y-70796230D01*
X188965348Y-70578887D01*
X188780513Y-70394052D01*
X188563170Y-70248828D01*
X188321672Y-70148796D01*
X188065298Y-70097800D01*
X187803902Y-70097800D01*
X187547528Y-70148796D01*
X187306030Y-70248828D01*
X187088687Y-70394052D01*
X186903852Y-70578887D01*
X186758628Y-70796230D01*
X186664600Y-71023233D01*
X186570572Y-70796230D01*
X186425348Y-70578887D01*
X186240513Y-70394052D01*
X186023170Y-70248828D01*
X185781672Y-70148796D01*
X185525298Y-70097800D01*
X185263902Y-70097800D01*
X185007528Y-70148796D01*
X184766030Y-70248828D01*
X184548687Y-70394052D01*
X184363852Y-70578887D01*
X184218628Y-70796230D01*
X184124600Y-71023233D01*
X184030572Y-70796230D01*
X183885348Y-70578887D01*
X183700513Y-70394052D01*
X183483170Y-70248828D01*
X183241672Y-70148796D01*
X182985298Y-70097800D01*
X182723902Y-70097800D01*
X182479746Y-70146366D01*
X182657112Y-69969000D01*
X196400070Y-69969000D01*
X196367564Y-70001506D01*
G36*
X200015548Y-72122658D02*
G01*
X200001405Y-72136800D01*
X200015548Y-72150943D01*
X199835943Y-72330548D01*
X199821800Y-72316405D01*
X199807658Y-72330548D01*
X199628053Y-72150943D01*
X199642195Y-72136800D01*
X199628053Y-72122658D01*
X199807658Y-71943053D01*
X199821800Y-71957195D01*
X199835943Y-71943053D01*
X200015548Y-72122658D01*
G37*
X200015548Y-72122658D02*
X200001405Y-72136800D01*
X200015548Y-72150943D01*
X199835943Y-72330548D01*
X199821800Y-72316405D01*
X199807658Y-72330548D01*
X199628053Y-72150943D01*
X199642195Y-72136800D01*
X199628053Y-72122658D01*
X199807658Y-71943053D01*
X199821800Y-71957195D01*
X199835943Y-71943053D01*
X200015548Y-72122658D01*
G36*
X196367564Y-67231506D02*
G01*
X196238756Y-67424281D01*
X196150031Y-67638482D01*
X196104800Y-67865876D01*
X196104800Y-68097724D01*
X196150031Y-68325118D01*
X196238756Y-68539319D01*
X196356142Y-68715000D01*
X182428193Y-68715000D01*
X182397399Y-68711967D01*
X182274487Y-68724073D01*
X182156297Y-68759925D01*
X182047372Y-68818147D01*
X181951899Y-68896499D01*
X181932266Y-68920422D01*
X180703242Y-70149446D01*
X180701672Y-70148796D01*
X180445298Y-70097800D01*
X180183902Y-70097800D01*
X179939746Y-70146366D01*
X182911112Y-67175000D01*
X196424070Y-67175000D01*
X196367564Y-67231506D01*
G37*
X196367564Y-67231506D02*
X196238756Y-67424281D01*
X196150031Y-67638482D01*
X196104800Y-67865876D01*
X196104800Y-68097724D01*
X196150031Y-68325118D01*
X196238756Y-68539319D01*
X196356142Y-68715000D01*
X182428193Y-68715000D01*
X182397399Y-68711967D01*
X182274487Y-68724073D01*
X182156297Y-68759925D01*
X182047372Y-68818147D01*
X181951899Y-68896499D01*
X181932266Y-68920422D01*
X180703242Y-70149446D01*
X180701672Y-70148796D01*
X180445298Y-70097800D01*
X180183902Y-70097800D01*
X179939746Y-70146366D01*
X182911112Y-67175000D01*
X196424070Y-67175000D01*
X196367564Y-67231506D01*
%TD*%
M02*
