%TF.GenerationSoftware,KiCad,Pcbnew,(5.1.6)-1*%
%TF.CreationDate,2022-10-27T10:48:03-04:00*%
%TF.ProjectId,plipbox-wiretap,706c6970-626f-4782-9d77-697265746170,rev?*%
%TF.SameCoordinates,Original*%
%TF.FileFunction,Soldermask,Bot*%
%TF.FilePolarity,Negative*%
%FSLAX46Y46*%
G04 Gerber Fmt 4.6, Leading zero omitted, Abs format (unit mm)*
G04 Created by KiCad (PCBNEW (5.1.6)-1) date 2022-10-27 10:48:03*
%MOMM*%
%LPD*%
G01*
G04 APERTURE LIST*
%ADD10C,5.500000*%
%ADD11C,0.900000*%
%ADD12R,1.600000X1.600000*%
%ADD13C,1.600000*%
%ADD14C,4.900000*%
%ADD15R,1.800000X1.800000*%
%ADD16O,1.800000X1.800000*%
%ADD17R,3.600000X3.600000*%
%ADD18C,1.900000*%
%ADD19R,1.900000X1.900000*%
%ADD20C,1.950000*%
G04 APERTURE END LIST*
D10*
%TO.C,REF\u002A\u002A*%
X176022000Y-101092000D03*
D11*
X178047000Y-101092000D03*
X177453891Y-102523891D03*
X176022000Y-103117000D03*
X174590109Y-102523891D03*
X173997000Y-101092000D03*
X174590109Y-99660109D03*
X176022000Y-99067000D03*
X177453891Y-99660109D03*
%TD*%
%TO.C,REF\u002A\u002A*%
X177707891Y-55718109D03*
X176276000Y-55125000D03*
X174844109Y-55718109D03*
X174251000Y-57150000D03*
X174844109Y-58581891D03*
X176276000Y-59175000D03*
X177707891Y-58581891D03*
X178301000Y-57150000D03*
D10*
X176276000Y-57150000D03*
%TD*%
D12*
%TO.C,J0*%
X197281800Y-95681800D03*
D13*
X197281800Y-92911800D03*
X197281800Y-90141800D03*
X197281800Y-87371800D03*
X197281800Y-84601800D03*
X197281800Y-81831800D03*
X197281800Y-79061800D03*
X197281800Y-76291800D03*
X197281800Y-73521800D03*
X197281800Y-70751800D03*
X197281800Y-67981800D03*
X197281800Y-65211800D03*
X197281800Y-62441800D03*
X199821800Y-94296800D03*
X199821800Y-91526800D03*
X199821800Y-88756800D03*
X199821800Y-85986800D03*
X199821800Y-83216800D03*
X199821800Y-80446800D03*
X199821800Y-77676800D03*
X199821800Y-74906800D03*
X199821800Y-72136800D03*
X199821800Y-69366800D03*
X199821800Y-66596800D03*
X199821800Y-63826800D03*
D14*
X198551800Y-102581800D03*
X198551800Y-55541800D03*
%TD*%
D15*
%TO.C,J1*%
X158496000Y-63500000D03*
D16*
X158496000Y-60960000D03*
X158496000Y-58420000D03*
%TD*%
D17*
%TO.C,J3*%
X162560000Y-96215200D03*
G36*
G01*
X155010000Y-97240200D02*
X155010000Y-95190200D01*
G75*
G02*
X155785000Y-94415200I775000J0D01*
G01*
X157335000Y-94415200D01*
G75*
G02*
X158110000Y-95190200I0J-775000D01*
G01*
X158110000Y-97240200D01*
G75*
G02*
X157335000Y-98015200I-775000J0D01*
G01*
X155785000Y-98015200D01*
G75*
G02*
X155010000Y-97240200I0J775000D01*
G01*
G37*
G36*
G01*
X157760000Y-101815200D02*
X157760000Y-100015200D01*
G75*
G02*
X158660000Y-99115200I900000J0D01*
G01*
X160460000Y-99115200D01*
G75*
G02*
X161360000Y-100015200I0J-900000D01*
G01*
X161360000Y-101815200D01*
G75*
G02*
X160460000Y-102715200I-900000J0D01*
G01*
X158660000Y-102715200D01*
G75*
G02*
X157760000Y-101815200I0J900000D01*
G01*
G37*
%TD*%
D18*
%TO.C,TB1*%
X152374600Y-71424800D03*
X154914600Y-71424800D03*
X157454600Y-71424800D03*
X159994600Y-71424800D03*
X162534600Y-71424800D03*
X165074600Y-71424800D03*
X167614600Y-71424800D03*
X170154600Y-71424800D03*
X172694600Y-71424800D03*
X175234600Y-71424800D03*
X177774600Y-71424800D03*
X180314600Y-71424800D03*
X182854600Y-71424800D03*
X185394600Y-71424800D03*
X187934600Y-71424800D03*
X187934600Y-86664800D03*
X185394600Y-86664800D03*
X182854600Y-86664800D03*
X180314600Y-86664800D03*
X177774600Y-86664800D03*
X175234600Y-86664800D03*
X172694600Y-86664800D03*
X170154600Y-86664800D03*
X167614600Y-86664800D03*
X165074600Y-86664800D03*
X162534600Y-86664800D03*
X159994600Y-86664800D03*
X157454600Y-86664800D03*
X154914600Y-86664800D03*
D19*
X152374600Y-86664800D03*
%TD*%
D20*
%TO.C,J2*%
X151511000Y-57385000D03*
X151511000Y-64535000D03*
%TD*%
M02*
