M48
; DRILL file {KiCad (5.1.6)-1} date 12/08/23 07:16:00
; FORMAT={-:-/ absolute / metric / decimal}
; #@! TF.CreationDate,2023-12-08T07:16:00-05:00
; #@! TF.GenerationSoftware,Kicad,Pcbnew,(5.1.6)-1
; #@! TF.FileFunction,Plated,1,2,PTH
FMAT,2
METRIC
T1C0.400
T2C0.500
T3C0.900
T4C1.000
T5C1.329
T6C2.700
T7C3.200
%
G90
G05
T1
X172.974Y-82.55
X173.228Y-75.692
X175.514Y-82.55
X178.054Y-82.55
X180.594Y-82.55
X181.864Y-73.914
X181.864Y-76.454
X183.134Y-82.55
X190.754Y-67.818
X190.754Y-71.374
X195.326Y-80.518
X201.676Y-87.63
T2
X173.997Y-101.092
X174.59Y-99.66
X174.59Y-102.524
X176.022Y-99.067
X176.022Y-103.117
X177.454Y-99.66
X177.454Y-102.524
X178.047Y-101.092
X174.251Y-57.15
X174.844Y-55.718
X174.844Y-58.582
X176.276Y-55.125
X176.276Y-59.175
X177.708Y-55.718
X177.708Y-58.582
X178.301Y-57.15
T3
X152.375Y-71.425
X152.375Y-86.665
X154.915Y-71.425
X154.915Y-86.665
X157.455Y-71.425
X157.455Y-86.665
X159.995Y-71.425
X159.995Y-86.665
X162.535Y-71.425
X162.535Y-86.665
X165.075Y-71.425
X165.075Y-86.665
X167.615Y-71.425
X167.615Y-86.665
X170.155Y-71.425
X170.155Y-86.665
X172.695Y-71.425
X172.695Y-86.665
X175.235Y-71.425
X175.235Y-86.665
X177.775Y-71.425
X177.775Y-86.665
X180.315Y-71.425
X180.315Y-86.665
X182.855Y-71.425
X182.855Y-86.665
X185.395Y-71.425
X185.395Y-86.665
X187.935Y-71.425
X187.935Y-86.665
T4
X186.614Y-100.467
X189.154Y-100.467
X197.282Y-62.442
X197.282Y-65.212
X197.282Y-67.982
X197.282Y-70.752
X197.282Y-73.522
X197.282Y-76.292
X197.282Y-79.062
X197.282Y-81.832
X197.282Y-84.602
X197.282Y-87.372
X197.282Y-90.142
X197.282Y-92.912
X197.282Y-95.682
X199.822Y-63.827
X199.822Y-66.597
X199.822Y-69.367
X199.822Y-72.137
X199.822Y-74.907
X199.822Y-77.677
X199.822Y-80.447
X199.822Y-83.217
X199.822Y-85.987
X199.822Y-88.757
X199.822Y-91.527
X199.822Y-94.297
X158.496Y-58.42
X158.496Y-60.96
X158.496Y-63.5
T5
X151.511Y-57.385
X151.511Y-64.535
T6
X176.022Y-101.092
X176.276Y-57.15
T7
X198.552Y-55.542
X198.552Y-102.582
T4
X156.56Y-95.215G85X156.56Y-97.215
G05
X158.56Y-100.915G85X160.56Y-100.915
G05
X162.56Y-95.215G85X162.56Y-97.215
G05
T0
M30
